<?xml version="1.0" encoding="UTF-8" standalone="no"?>
<!DOCTYPE svg PUBLIC "-//W3C//DTD SVG 1.1//EN" "http://www.w3.org/Graphics/SVG/1.1/DTD/svg11.dtd">
<svg width="100%" height="100%" viewBox="0 0 206 206" version="1.1" xmlns="http://www.w3.org/2000/svg" xmlns:xlink="http://www.w3.org/1999/xlink" xml:space="preserve" xmlns:serif="http://www.serif.com/" style="fill-rule:evenodd;clip-rule:evenodd;stroke-linejoin:round;stroke-miterlimit:2;">
    <g transform="matrix(1,0,0,1,-1373.45,-2387.67)">
        <g transform="matrix(5.39006,0,0,1.72574,0,0)">
            <g transform="matrix(0.773028,0,0,2.41443,277.529,1486.79)">
                <path d="M0,-36.203C-2.318,-36.203 -4.32,-34.307 -4.32,-31.989C-4.32,-29.828 -2.897,-28.405 -0.736,-28.405C1.634,-28.405 3.636,-30.196 3.636,-32.621C3.636,-34.781 2.108,-36.203 0,-36.203M-10.799,-22.98C-11.484,-22.295 -13.802,-20.083 -13.802,-19.135C-13.802,-18.818 -13.486,-18.449 -13.117,-18.449C-12.17,-18.449 -9.641,-23.032 -7.691,-23.032C-7.27,-23.032 -6.795,-22.557 -7.165,-21.611L-10.852,-12.338C-11.221,-11.441 -13.012,-7.122 -13.012,-4.594C-13.012,-2.592 -11.695,-1.697 -9.798,-1.697C-4.477,-1.697 1.686,-8.229 1.686,-9.758C1.686,-10.231 1.317,-10.547 1.055,-10.547C0.316,-10.547 -2.581,-6.068 -4.162,-6.068C-4.583,-6.068 -4.793,-6.438 -4.793,-6.807C-4.793,-7.648 -4.214,-8.967 -3.898,-9.758L-0.104,-20.029C1.792,-25.14 -0.632,-26.51 -2.897,-26.51C-5.952,-26.51 -8.692,-24.982 -10.799,-22.98M-4.737,6.549C-18.351,6.549 -29.388,-4.488 -29.388,-18.101C-29.388,-31.715 -18.351,-42.752 -4.737,-42.752C8.877,-42.752 19.913,-31.715 19.913,-18.101C19.913,-4.488 8.877,6.549 -4.737,6.549" style="fill:rgb(2,70,100);"/>
            </g>
        </g>
    </g>
</svg>
