<?xml version="1.0" encoding="UTF-8" standalone="no"?>
<!DOCTYPE svg PUBLIC "-//W3C//DTD SVG 1.1//EN" "http://www.w3.org/Graphics/SVG/1.1/DTD/svg11.dtd">
<svg width="100%" height="100%" viewBox="0 0 3015 280" version="1.1" xmlns="http://www.w3.org/2000/svg" xmlns:xlink="http://www.w3.org/1999/xlink" xml:space="preserve" xmlns:serif="http://www.serif.com/" style="fill-rule:evenodd;clip-rule:evenodd;stroke-linecap:round;stroke-linejoin:round;stroke-miterlimit:1.5;">
    <g transform="matrix(1,0,0,1,-508.363,-4894.08)">
        <g transform="matrix(5.39006,0,0,1.72574,0,0)">
            <g transform="matrix(1.00108,0,0,1,-1329.45,2636.05)">
                <g transform="matrix(0.185327,0,0,0.579462,403.768,-845.947)">
                    <g transform="matrix(175,0,0,175,6128.37,1989.91)">
                        <path d="M0.586,-0.048C0.59,-0.036 0.593,-0.027 0.594,-0.02C0.595,-0.013 0.593,-0.008 0.59,-0.005C0.586,-0.001 0.58,0.001 0.571,0.002C0.562,0.003 0.549,0.003 0.533,0.003C0.517,0.003 0.504,0.003 0.494,0.002C0.485,0.002 0.478,0.001 0.473,-0.001C0.468,-0.002 0.465,-0.004 0.463,-0.007C0.461,-0.009 0.459,-0.013 0.458,-0.017L0.416,-0.144L0.178,-0.144L0.138,-0.021C0.137,-0.016 0.135,-0.012 0.133,-0.009C0.131,-0.006 0.128,-0.003 0.123,-0.002C0.118,0 0.111,0.001 0.103,0.002C0.094,0.003 0.083,0.003 0.069,0.003C0.054,0.003 0.042,0.002 0.034,0.001C0.025,0 0.019,-0.002 0.016,-0.006C0.013,-0.009 0.012,-0.015 0.013,-0.021C0.014,-0.028 0.016,-0.037 0.02,-0.049L0.215,-0.609C0.217,-0.615 0.219,-0.619 0.222,-0.623C0.224,-0.626 0.228,-0.629 0.234,-0.631C0.24,-0.632 0.248,-0.634 0.258,-0.634C0.268,-0.635 0.281,-0.635 0.298,-0.635C0.317,-0.635 0.332,-0.635 0.344,-0.634C0.355,-0.634 0.364,-0.632 0.37,-0.631C0.377,-0.629 0.381,-0.626 0.384,-0.623C0.387,-0.619 0.389,-0.614 0.391,-0.608L0.586,-0.048ZM0.296,-0.511L0.296,-0.511L0.207,-0.243L0.386,-0.243L0.296,-0.511Z" style="fill:rgb(2,70,100);fill-rule:nonzero;"/>
                    </g>
                    <g transform="matrix(175,0,0,175,6234.41,1989.91)">
                        <path d="M0.754,-0.017C0.754,-0.013 0.753,-0.01 0.751,-0.008C0.75,-0.006 0.746,-0.004 0.742,-0.002C0.737,-0 0.731,0.001 0.723,0.002C0.715,0.003 0.705,0.003 0.693,0.003C0.681,0.003 0.671,0.003 0.663,0.002C0.655,0.001 0.649,-0 0.644,-0.002C0.64,-0.004 0.636,-0.006 0.635,-0.008C0.633,-0.01 0.632,-0.013 0.632,-0.017L0.632,-0.275C0.632,-0.29 0.63,-0.303 0.628,-0.315C0.625,-0.327 0.621,-0.337 0.615,-0.346C0.609,-0.355 0.602,-0.361 0.594,-0.366C0.585,-0.371 0.575,-0.373 0.563,-0.373C0.548,-0.373 0.533,-0.367 0.518,-0.356C0.503,-0.345 0.487,-0.328 0.469,-0.306L0.469,-0.017C0.469,-0.013 0.468,-0.01 0.466,-0.008C0.464,-0.006 0.461,-0.004 0.456,-0.002C0.452,-0 0.445,0.001 0.438,0.002C0.43,0.003 0.42,0.003 0.408,0.003C0.396,0.003 0.386,0.003 0.378,0.002C0.371,0.001 0.364,-0 0.36,-0.002C0.355,-0.004 0.352,-0.006 0.35,-0.008C0.348,-0.01 0.347,-0.013 0.347,-0.017L0.347,-0.275C0.347,-0.29 0.345,-0.303 0.343,-0.315C0.34,-0.327 0.336,-0.337 0.33,-0.346C0.325,-0.355 0.317,-0.361 0.309,-0.366C0.3,-0.371 0.29,-0.373 0.278,-0.373C0.263,-0.373 0.248,-0.367 0.233,-0.356C0.218,-0.345 0.202,-0.328 0.185,-0.306L0.185,-0.017C0.185,-0.013 0.184,-0.01 0.182,-0.008C0.18,-0.006 0.176,-0.004 0.172,-0.002C0.167,-0 0.161,0.001 0.153,0.002C0.145,0.003 0.135,0.003 0.123,0.003C0.111,0.003 0.101,0.003 0.093,0.002C0.085,0.001 0.079,-0 0.074,-0.002C0.07,-0.004 0.066,-0.006 0.064,-0.008C0.063,-0.01 0.062,-0.013 0.062,-0.017L0.062,-0.452C0.062,-0.455 0.062,-0.458 0.064,-0.461C0.066,-0.463 0.069,-0.465 0.073,-0.467C0.077,-0.468 0.082,-0.47 0.089,-0.47C0.096,-0.471 0.104,-0.472 0.114,-0.472C0.125,-0.472 0.133,-0.471 0.14,-0.47C0.147,-0.47 0.152,-0.468 0.156,-0.467C0.16,-0.465 0.162,-0.463 0.164,-0.461C0.166,-0.458 0.167,-0.455 0.167,-0.452L0.167,-0.402C0.191,-0.428 0.215,-0.447 0.239,-0.46C0.262,-0.473 0.287,-0.48 0.313,-0.48C0.331,-0.48 0.347,-0.478 0.362,-0.474C0.376,-0.471 0.389,-0.465 0.4,-0.458C0.411,-0.451 0.421,-0.443 0.429,-0.433C0.437,-0.423 0.444,-0.412 0.45,-0.4C0.463,-0.414 0.476,-0.426 0.488,-0.437C0.501,-0.447 0.513,-0.455 0.525,-0.461C0.537,-0.468 0.55,-0.472 0.562,-0.475C0.574,-0.478 0.586,-0.48 0.599,-0.48C0.628,-0.48 0.653,-0.475 0.672,-0.465C0.692,-0.456 0.708,-0.442 0.72,-0.426C0.733,-0.409 0.741,-0.389 0.747,-0.367C0.752,-0.344 0.754,-0.32 0.754,-0.295L0.754,-0.017Z" style="fill:rgb(2,70,100);fill-rule:nonzero;"/>
                    </g>
                    <g transform="matrix(175,0,0,175,6376.77,1989.91)">
                        <path d="M0.5,-0.24C0.5,-0.201 0.496,-0.167 0.487,-0.136C0.479,-0.105 0.467,-0.078 0.451,-0.057C0.435,-0.035 0.415,-0.018 0.392,-0.006C0.369,0.005 0.342,0.011 0.313,0.011C0.298,0.011 0.284,0.01 0.271,0.007C0.259,0.004 0.247,-0 0.235,-0.006C0.224,-0.013 0.212,-0.02 0.201,-0.03C0.19,-0.039 0.178,-0.051 0.167,-0.064L0.167,-0.017C0.167,-0.013 0.166,-0.01 0.164,-0.008C0.162,-0.005 0.159,-0.003 0.155,-0.001C0.151,0 0.146,0.001 0.139,0.002C0.132,0.003 0.124,0.003 0.114,0.003C0.104,0.003 0.095,0.003 0.089,0.002C0.082,0.001 0.077,0 0.073,-0.001C0.068,-0.003 0.066,-0.005 0.064,-0.008C0.062,-0.01 0.062,-0.013 0.062,-0.017L0.062,-0.659C0.062,-0.662 0.063,-0.665 0.064,-0.667C0.066,-0.67 0.07,-0.672 0.074,-0.674C0.079,-0.676 0.085,-0.677 0.093,-0.678C0.101,-0.679 0.111,-0.68 0.123,-0.68C0.135,-0.68 0.145,-0.679 0.153,-0.678C0.161,-0.677 0.167,-0.676 0.172,-0.674C0.176,-0.672 0.18,-0.67 0.182,-0.667C0.184,-0.665 0.185,-0.662 0.185,-0.659L0.185,-0.418C0.196,-0.429 0.207,-0.438 0.218,-0.446C0.229,-0.454 0.24,-0.461 0.251,-0.466C0.262,-0.471 0.273,-0.474 0.285,-0.477C0.297,-0.479 0.309,-0.48 0.322,-0.48C0.354,-0.48 0.382,-0.474 0.404,-0.461C0.427,-0.448 0.445,-0.431 0.459,-0.409C0.473,-0.387 0.484,-0.361 0.49,-0.332C0.497,-0.303 0.5,-0.272 0.5,-0.24ZM0.373,-0.231C0.373,-0.25 0.371,-0.268 0.368,-0.285C0.366,-0.302 0.361,-0.318 0.354,-0.331C0.347,-0.344 0.338,-0.355 0.327,-0.363C0.316,-0.371 0.303,-0.375 0.286,-0.375C0.278,-0.375 0.27,-0.374 0.262,-0.372C0.254,-0.369 0.246,-0.365 0.238,-0.36C0.23,-0.354 0.221,-0.347 0.212,-0.338C0.204,-0.33 0.194,-0.319 0.185,-0.306L0.185,-0.161C0.202,-0.139 0.218,-0.122 0.234,-0.111C0.25,-0.099 0.266,-0.093 0.284,-0.093C0.3,-0.093 0.313,-0.097 0.324,-0.105C0.335,-0.114 0.344,-0.124 0.352,-0.137C0.359,-0.15 0.364,-0.165 0.368,-0.182C0.371,-0.198 0.373,-0.215 0.373,-0.231Z" style="fill:rgb(2,70,100);fill-rule:nonzero;"/>
                    </g>
                    <g transform="matrix(175,0,0,175,6470.68,1989.91)">
                        <path d="M0.185,-0.017C0.185,-0.013 0.184,-0.01 0.182,-0.008C0.18,-0.006 0.176,-0.004 0.172,-0.002C0.167,-0 0.161,0.001 0.153,0.002C0.145,0.003 0.135,0.003 0.123,0.003C0.111,0.003 0.101,0.003 0.093,0.002C0.085,0.001 0.079,-0 0.074,-0.002C0.07,-0.004 0.066,-0.006 0.064,-0.008C0.063,-0.01 0.062,-0.013 0.062,-0.017L0.062,-0.451C0.062,-0.454 0.063,-0.457 0.064,-0.46C0.066,-0.462 0.07,-0.464 0.074,-0.466C0.079,-0.468 0.085,-0.469 0.093,-0.47C0.101,-0.471 0.111,-0.472 0.123,-0.472C0.135,-0.472 0.145,-0.471 0.153,-0.47C0.161,-0.469 0.167,-0.468 0.172,-0.466C0.176,-0.464 0.18,-0.462 0.182,-0.46C0.184,-0.457 0.185,-0.454 0.185,-0.451L0.185,-0.017ZM0.194,-0.6C0.194,-0.575 0.189,-0.558 0.179,-0.548C0.169,-0.539 0.15,-0.534 0.123,-0.534C0.095,-0.534 0.076,-0.539 0.067,-0.548C0.057,-0.557 0.052,-0.573 0.052,-0.597C0.052,-0.622 0.057,-0.639 0.067,-0.649C0.077,-0.658 0.096,-0.663 0.124,-0.663C0.151,-0.663 0.169,-0.658 0.179,-0.649C0.189,-0.64 0.194,-0.623 0.194,-0.6Z" style="fill:rgb(2,70,100);fill-rule:nonzero;"/>
                    </g>
                    <g transform="matrix(175,0,0,175,6513.66,1989.91)">
                        <path d="M0.464,-0.247C0.464,-0.232 0.461,-0.221 0.454,-0.214C0.447,-0.207 0.438,-0.203 0.426,-0.203L0.161,-0.203C0.161,-0.185 0.163,-0.168 0.168,-0.153C0.172,-0.137 0.179,-0.125 0.189,-0.114C0.198,-0.103 0.211,-0.095 0.226,-0.09C0.241,-0.084 0.259,-0.082 0.28,-0.082C0.302,-0.082 0.321,-0.083 0.337,-0.086C0.353,-0.089 0.367,-0.093 0.379,-0.096C0.391,-0.1 0.401,-0.104 0.409,-0.107C0.417,-0.11 0.423,-0.111 0.428,-0.111C0.431,-0.111 0.433,-0.111 0.435,-0.11C0.437,-0.108 0.439,-0.106 0.44,-0.104C0.441,-0.101 0.442,-0.096 0.443,-0.091C0.443,-0.086 0.443,-0.079 0.443,-0.071C0.443,-0.064 0.443,-0.058 0.443,-0.052C0.443,-0.047 0.442,-0.043 0.441,-0.04C0.441,-0.036 0.44,-0.033 0.438,-0.031C0.437,-0.028 0.435,-0.026 0.433,-0.023C0.431,-0.021 0.425,-0.018 0.416,-0.014C0.407,-0.01 0.395,-0.006 0.38,-0.003C0.365,0.001 0.348,0.004 0.33,0.007C0.311,0.01 0.291,0.011 0.269,0.011C0.23,0.011 0.196,0.006 0.167,-0.003C0.138,-0.013 0.114,-0.028 0.094,-0.048C0.075,-0.068 0.06,-0.093 0.051,-0.123C0.041,-0.153 0.036,-0.189 0.036,-0.229C0.036,-0.268 0.041,-0.303 0.051,-0.334C0.061,-0.365 0.076,-0.392 0.095,-0.413C0.114,-0.435 0.138,-0.451 0.165,-0.463C0.193,-0.474 0.224,-0.48 0.258,-0.48C0.295,-0.48 0.326,-0.475 0.352,-0.464C0.378,-0.453 0.399,-0.438 0.416,-0.419C0.432,-0.4 0.444,-0.378 0.452,-0.352C0.46,-0.326 0.464,-0.297 0.464,-0.267L0.464,-0.247ZM0.345,-0.282C0.346,-0.317 0.339,-0.344 0.324,-0.364C0.309,-0.383 0.286,-0.393 0.255,-0.393C0.24,-0.393 0.226,-0.39 0.215,-0.384C0.203,-0.378 0.193,-0.371 0.186,-0.361C0.178,-0.351 0.172,-0.339 0.168,-0.325C0.164,-0.312 0.162,-0.298 0.161,-0.282L0.345,-0.282Z" style="fill:rgb(2,70,100);fill-rule:nonzero;"/>
                    </g>
                    <g transform="matrix(175,0,0,175,6601.76,1989.91)">
                        <path d="M0.478,-0.017C0.478,-0.013 0.477,-0.01 0.475,-0.008C0.473,-0.006 0.469,-0.004 0.465,-0.002C0.46,-0 0.454,0.001 0.446,0.002C0.438,0.003 0.428,0.003 0.417,0.003C0.404,0.003 0.394,0.003 0.386,0.002C0.378,0.001 0.372,-0 0.368,-0.002C0.363,-0.004 0.36,-0.006 0.358,-0.008C0.356,-0.01 0.355,-0.013 0.355,-0.017L0.355,-0.265C0.355,-0.286 0.353,-0.303 0.35,-0.315C0.347,-0.327 0.343,-0.337 0.337,-0.346C0.331,-0.355 0.323,-0.361 0.314,-0.366C0.305,-0.371 0.294,-0.373 0.282,-0.373C0.266,-0.373 0.25,-0.367 0.234,-0.356C0.218,-0.345 0.202,-0.328 0.185,-0.306L0.185,-0.017C0.185,-0.013 0.184,-0.01 0.182,-0.008C0.18,-0.006 0.176,-0.004 0.172,-0.002C0.167,-0 0.161,0.001 0.153,0.002C0.145,0.003 0.135,0.003 0.123,0.003C0.111,0.003 0.101,0.003 0.093,0.002C0.085,0.001 0.079,-0 0.074,-0.002C0.07,-0.004 0.066,-0.006 0.064,-0.008C0.063,-0.01 0.062,-0.013 0.062,-0.017L0.062,-0.452C0.062,-0.455 0.062,-0.458 0.064,-0.461C0.066,-0.463 0.069,-0.465 0.073,-0.467C0.077,-0.468 0.082,-0.47 0.089,-0.47C0.096,-0.471 0.104,-0.472 0.114,-0.472C0.125,-0.472 0.133,-0.471 0.14,-0.47C0.147,-0.47 0.152,-0.468 0.156,-0.467C0.16,-0.465 0.162,-0.463 0.164,-0.461C0.166,-0.458 0.167,-0.455 0.167,-0.452L0.167,-0.402C0.191,-0.428 0.215,-0.447 0.24,-0.46C0.265,-0.473 0.291,-0.48 0.318,-0.48C0.347,-0.48 0.372,-0.475 0.393,-0.465C0.413,-0.456 0.43,-0.442 0.442,-0.426C0.455,-0.409 0.464,-0.389 0.469,-0.367C0.475,-0.344 0.478,-0.317 0.478,-0.286L0.478,-0.017Z" style="fill:rgb(2,70,100);fill-rule:nonzero;"/>
                    </g>
                    <g transform="matrix(175,0,0,175,6694.04,1989.91)">
                        <path d="M0.319,-0.06C0.319,-0.045 0.318,-0.034 0.317,-0.027C0.315,-0.019 0.313,-0.014 0.31,-0.01C0.307,-0.007 0.302,-0.005 0.297,-0.002C0.291,0 0.284,0.002 0.277,0.004C0.269,0.006 0.261,0.007 0.252,0.008C0.243,0.009 0.234,0.01 0.225,0.01C0.2,0.01 0.179,0.007 0.161,0C0.143,-0.006 0.128,-0.015 0.117,-0.028C0.105,-0.041 0.096,-0.057 0.091,-0.077C0.085,-0.096 0.083,-0.119 0.083,-0.146L0.083,-0.369L0.03,-0.369C0.024,-0.369 0.019,-0.373 0.016,-0.381C0.013,-0.388 0.011,-0.401 0.011,-0.419C0.011,-0.428 0.012,-0.436 0.012,-0.443C0.013,-0.449 0.014,-0.455 0.016,-0.458C0.018,-0.462 0.02,-0.465 0.022,-0.466C0.025,-0.468 0.028,-0.469 0.031,-0.469L0.083,-0.469L0.083,-0.566C0.083,-0.569 0.083,-0.572 0.085,-0.575C0.087,-0.577 0.09,-0.58 0.095,-0.581C0.1,-0.583 0.106,-0.584 0.114,-0.585C0.122,-0.586 0.132,-0.586 0.144,-0.586C0.156,-0.586 0.166,-0.586 0.174,-0.585C0.182,-0.584 0.188,-0.583 0.192,-0.581C0.197,-0.58 0.2,-0.577 0.202,-0.575C0.204,-0.572 0.205,-0.569 0.205,-0.566L0.205,-0.469L0.3,-0.469C0.303,-0.469 0.306,-0.468 0.308,-0.466C0.311,-0.465 0.313,-0.462 0.314,-0.458C0.316,-0.455 0.317,-0.449 0.318,-0.443C0.319,-0.436 0.319,-0.428 0.319,-0.419C0.319,-0.401 0.318,-0.388 0.314,-0.381C0.311,-0.373 0.306,-0.369 0.3,-0.369L0.205,-0.369L0.205,-0.165C0.205,-0.141 0.209,-0.123 0.216,-0.111C0.224,-0.099 0.237,-0.093 0.256,-0.093C0.263,-0.093 0.269,-0.094 0.274,-0.095C0.279,-0.096 0.284,-0.097 0.288,-0.099C0.292,-0.1 0.295,-0.102 0.298,-0.103C0.301,-0.104 0.303,-0.104 0.306,-0.104C0.308,-0.104 0.309,-0.104 0.311,-0.103C0.313,-0.102 0.314,-0.099 0.315,-0.096C0.316,-0.093 0.317,-0.088 0.318,-0.082C0.319,-0.076 0.319,-0.069 0.319,-0.06Z" style="fill:rgb(2,70,100);fill-rule:nonzero;"/>
                    </g>
                    <g transform="matrix(175,0,0,175,6794.27,1989.91)">
                        <path d="M0.59,-0.045C0.59,-0.037 0.589,-0.031 0.586,-0.025C0.583,-0.019 0.58,-0.014 0.575,-0.01C0.571,-0.006 0.566,-0.003 0.56,-0.002C0.554,0 0.548,0.001 0.542,0.001L0.487,0.001C0.475,0.001 0.466,-0 0.457,-0.002C0.449,-0.005 0.441,-0.009 0.434,-0.015C0.427,-0.021 0.421,-0.029 0.414,-0.039C0.408,-0.05 0.4,-0.063 0.392,-0.079L0.235,-0.375C0.226,-0.392 0.216,-0.411 0.207,-0.431C0.198,-0.452 0.189,-0.472 0.182,-0.491L0.181,-0.491C0.182,-0.467 0.183,-0.444 0.184,-0.421C0.184,-0.397 0.185,-0.373 0.185,-0.349L0.185,-0.018C0.185,-0.015 0.184,-0.012 0.182,-0.009C0.18,-0.007 0.177,-0.004 0.173,-0.003C0.168,-0.001 0.162,0 0.155,0.001C0.147,0.002 0.138,0.003 0.126,0.003C0.115,0.003 0.105,0.002 0.098,0.001C0.09,0 0.084,-0.001 0.08,-0.003C0.076,-0.004 0.073,-0.007 0.071,-0.009C0.07,-0.012 0.069,-0.015 0.069,-0.018L0.069,-0.586C0.069,-0.601 0.073,-0.613 0.082,-0.62C0.091,-0.628 0.102,-0.632 0.115,-0.632L0.184,-0.632C0.196,-0.632 0.207,-0.631 0.215,-0.629C0.224,-0.627 0.231,-0.623 0.238,-0.618C0.245,-0.613 0.251,-0.607 0.257,-0.598C0.263,-0.589 0.269,-0.579 0.275,-0.566L0.398,-0.335C0.405,-0.321 0.412,-0.307 0.419,-0.294C0.426,-0.28 0.433,-0.267 0.439,-0.253C0.446,-0.24 0.452,-0.226 0.458,-0.213C0.465,-0.2 0.471,-0.187 0.477,-0.174L0.477,-0.174C0.476,-0.197 0.475,-0.221 0.475,-0.246C0.474,-0.27 0.474,-0.294 0.474,-0.316L0.474,-0.613C0.474,-0.616 0.475,-0.619 0.477,-0.622C0.479,-0.624 0.482,-0.626 0.487,-0.628C0.491,-0.63 0.497,-0.632 0.505,-0.633C0.512,-0.633 0.522,-0.634 0.534,-0.634C0.545,-0.634 0.554,-0.633 0.562,-0.633C0.569,-0.632 0.575,-0.63 0.579,-0.628C0.583,-0.626 0.586,-0.624 0.587,-0.622C0.589,-0.619 0.59,-0.616 0.59,-0.613L0.59,-0.045Z" style="fill:rgb(2,70,100);fill-rule:nonzero;"/>
                    </g>
                    <g transform="matrix(175,0,0,175,6909.54,1989.91)">
                        <path d="M0.502,-0.239C0.502,-0.202 0.497,-0.168 0.487,-0.137C0.478,-0.107 0.463,-0.08 0.443,-0.058C0.423,-0.036 0.398,-0.019 0.368,-0.007C0.338,0.005 0.303,0.011 0.263,0.011C0.224,0.011 0.191,0.006 0.162,-0.005C0.133,-0.016 0.11,-0.031 0.091,-0.052C0.072,-0.072 0.058,-0.097 0.049,-0.127C0.04,-0.157 0.035,-0.192 0.035,-0.23C0.035,-0.267 0.04,-0.301 0.05,-0.332C0.06,-0.363 0.075,-0.389 0.095,-0.411C0.115,-0.433 0.139,-0.45 0.169,-0.462C0.199,-0.474 0.234,-0.48 0.274,-0.48C0.313,-0.48 0.347,-0.475 0.375,-0.464C0.404,-0.454 0.428,-0.438 0.447,-0.417C0.465,-0.397 0.479,-0.372 0.488,-0.342C0.497,-0.312 0.502,-0.278 0.502,-0.239ZM0.375,-0.234C0.375,-0.255 0.374,-0.275 0.37,-0.293C0.367,-0.311 0.361,-0.327 0.353,-0.34C0.345,-0.354 0.334,-0.364 0.321,-0.372C0.307,-0.379 0.29,-0.383 0.27,-0.383C0.251,-0.383 0.235,-0.379 0.222,-0.373C0.208,-0.366 0.197,-0.356 0.188,-0.344C0.179,-0.331 0.173,-0.315 0.168,-0.297C0.164,-0.279 0.162,-0.258 0.162,-0.235C0.162,-0.214 0.163,-0.194 0.167,-0.176C0.171,-0.158 0.176,-0.142 0.184,-0.129C0.192,-0.116 0.203,-0.105 0.217,-0.098C0.23,-0.091 0.247,-0.087 0.268,-0.087C0.286,-0.087 0.302,-0.09 0.316,-0.097C0.33,-0.104 0.341,-0.113 0.35,-0.126C0.358,-0.139 0.365,-0.154 0.369,-0.172C0.373,-0.19 0.375,-0.211 0.375,-0.234Z" style="fill:rgb(2,70,100);fill-rule:nonzero;"/>
                    </g>
                    <g transform="matrix(175,0,0,175,7003.62,1989.91)">
                        <path d="M0.185,-0.017C0.185,-0.013 0.184,-0.01 0.182,-0.008C0.18,-0.006 0.176,-0.004 0.172,-0.002C0.167,-0 0.161,0.001 0.153,0.002C0.145,0.003 0.135,0.003 0.123,0.003C0.111,0.003 0.101,0.003 0.093,0.002C0.085,0.001 0.079,-0 0.074,-0.002C0.07,-0.004 0.066,-0.006 0.064,-0.008C0.063,-0.01 0.062,-0.013 0.062,-0.017L0.062,-0.451C0.062,-0.454 0.063,-0.457 0.064,-0.46C0.066,-0.462 0.07,-0.464 0.074,-0.466C0.079,-0.468 0.085,-0.469 0.093,-0.47C0.101,-0.471 0.111,-0.472 0.123,-0.472C0.135,-0.472 0.145,-0.471 0.153,-0.47C0.161,-0.469 0.167,-0.468 0.172,-0.466C0.176,-0.464 0.18,-0.462 0.182,-0.46C0.184,-0.457 0.185,-0.454 0.185,-0.451L0.185,-0.017ZM0.194,-0.6C0.194,-0.575 0.189,-0.558 0.179,-0.548C0.169,-0.539 0.15,-0.534 0.123,-0.534C0.095,-0.534 0.076,-0.539 0.067,-0.548C0.057,-0.557 0.052,-0.573 0.052,-0.597C0.052,-0.622 0.057,-0.639 0.067,-0.649C0.077,-0.658 0.096,-0.663 0.124,-0.663C0.151,-0.663 0.169,-0.658 0.179,-0.649C0.189,-0.64 0.194,-0.623 0.194,-0.6Z" style="fill:rgb(2,70,100);fill-rule:nonzero;"/>
                    </g>
                    <g transform="matrix(175,0,0,175,7046.6,1989.91)">
                        <path d="M0.368,-0.14C0.368,-0.115 0.364,-0.093 0.354,-0.074C0.345,-0.055 0.332,-0.04 0.315,-0.027C0.298,-0.014 0.278,-0.005 0.255,0.002C0.232,0.008 0.207,0.011 0.18,0.011C0.163,0.011 0.148,0.01 0.133,0.008C0.118,0.005 0.105,0.002 0.093,-0.002C0.082,-0.005 0.072,-0.009 0.064,-0.013C0.056,-0.017 0.05,-0.021 0.047,-0.024C0.043,-0.028 0.041,-0.033 0.039,-0.04C0.037,-0.048 0.036,-0.058 0.036,-0.073C0.036,-0.082 0.036,-0.09 0.037,-0.095C0.037,-0.101 0.038,-0.106 0.04,-0.109C0.041,-0.113 0.042,-0.115 0.044,-0.116C0.046,-0.117 0.049,-0.118 0.052,-0.118C0.055,-0.118 0.061,-0.116 0.068,-0.112C0.075,-0.108 0.083,-0.103 0.094,-0.098C0.104,-0.093 0.116,-0.089 0.13,-0.084C0.144,-0.08 0.16,-0.078 0.177,-0.078C0.188,-0.078 0.198,-0.079 0.207,-0.082C0.215,-0.084 0.223,-0.087 0.229,-0.091C0.236,-0.096 0.24,-0.101 0.244,-0.107C0.247,-0.114 0.249,-0.121 0.249,-0.13C0.249,-0.14 0.246,-0.148 0.24,-0.155C0.233,-0.162 0.226,-0.168 0.216,-0.173C0.206,-0.179 0.194,-0.183 0.182,-0.188C0.169,-0.193 0.156,-0.198 0.143,-0.203C0.13,-0.209 0.117,-0.215 0.105,-0.222C0.092,-0.229 0.081,-0.238 0.071,-0.249C0.061,-0.259 0.053,-0.271 0.047,-0.286C0.041,-0.301 0.038,-0.318 0.038,-0.339C0.038,-0.36 0.042,-0.379 0.05,-0.396C0.058,-0.414 0.07,-0.429 0.085,-0.441C0.101,-0.453 0.119,-0.463 0.141,-0.47C0.163,-0.477 0.188,-0.48 0.215,-0.48C0.229,-0.48 0.242,-0.479 0.255,-0.477C0.268,-0.475 0.28,-0.473 0.29,-0.47C0.3,-0.467 0.309,-0.464 0.316,-0.46C0.324,-0.457 0.329,-0.454 0.332,-0.451C0.335,-0.449 0.337,-0.447 0.338,-0.444C0.34,-0.442 0.341,-0.439 0.341,-0.435C0.342,-0.432 0.343,-0.428 0.343,-0.423C0.344,-0.418 0.344,-0.411 0.344,-0.404C0.344,-0.395 0.344,-0.388 0.343,-0.382C0.343,-0.377 0.342,-0.372 0.341,-0.369C0.339,-0.366 0.338,-0.364 0.336,-0.363C0.334,-0.361 0.332,-0.361 0.329,-0.361C0.326,-0.361 0.322,-0.363 0.315,-0.366C0.309,-0.369 0.302,-0.373 0.292,-0.377C0.283,-0.381 0.272,-0.385 0.26,-0.388C0.248,-0.391 0.234,-0.393 0.218,-0.393C0.207,-0.393 0.198,-0.392 0.189,-0.39C0.181,-0.387 0.175,-0.384 0.169,-0.38C0.164,-0.376 0.16,-0.371 0.158,-0.365C0.155,-0.359 0.154,-0.353 0.154,-0.347C0.154,-0.337 0.157,-0.328 0.163,-0.321C0.169,-0.314 0.177,-0.308 0.188,-0.303C0.198,-0.298 0.209,-0.293 0.222,-0.289C0.235,-0.284 0.248,-0.279 0.261,-0.274C0.274,-0.268 0.287,-0.262 0.3,-0.255C0.313,-0.248 0.324,-0.239 0.334,-0.229C0.345,-0.218 0.353,-0.206 0.359,-0.191C0.365,-0.177 0.368,-0.16 0.368,-0.14Z" style="fill:rgb(2,70,100);fill-rule:nonzero;"/>
                    </g>
                    <g transform="matrix(175,0,0,175,7116.42,1989.91)">
                        <path d="M0.464,-0.247C0.464,-0.232 0.461,-0.221 0.454,-0.214C0.447,-0.207 0.438,-0.203 0.426,-0.203L0.161,-0.203C0.161,-0.185 0.163,-0.168 0.168,-0.153C0.172,-0.137 0.179,-0.125 0.189,-0.114C0.198,-0.103 0.211,-0.095 0.226,-0.09C0.241,-0.084 0.259,-0.082 0.28,-0.082C0.302,-0.082 0.321,-0.083 0.337,-0.086C0.353,-0.089 0.367,-0.093 0.379,-0.096C0.391,-0.1 0.401,-0.104 0.409,-0.107C0.417,-0.11 0.423,-0.111 0.428,-0.111C0.431,-0.111 0.433,-0.111 0.435,-0.11C0.437,-0.108 0.439,-0.106 0.44,-0.104C0.441,-0.101 0.442,-0.096 0.443,-0.091C0.443,-0.086 0.443,-0.079 0.443,-0.071C0.443,-0.064 0.443,-0.058 0.443,-0.052C0.443,-0.047 0.442,-0.043 0.441,-0.04C0.441,-0.036 0.44,-0.033 0.438,-0.031C0.437,-0.028 0.435,-0.026 0.433,-0.023C0.431,-0.021 0.425,-0.018 0.416,-0.014C0.407,-0.01 0.395,-0.006 0.38,-0.003C0.365,0.001 0.348,0.004 0.33,0.007C0.311,0.01 0.291,0.011 0.269,0.011C0.23,0.011 0.196,0.006 0.167,-0.003C0.138,-0.013 0.114,-0.028 0.094,-0.048C0.075,-0.068 0.06,-0.093 0.051,-0.123C0.041,-0.153 0.036,-0.189 0.036,-0.229C0.036,-0.268 0.041,-0.303 0.051,-0.334C0.061,-0.365 0.076,-0.392 0.095,-0.413C0.114,-0.435 0.138,-0.451 0.165,-0.463C0.193,-0.474 0.224,-0.48 0.258,-0.48C0.295,-0.48 0.326,-0.475 0.352,-0.464C0.378,-0.453 0.399,-0.438 0.416,-0.419C0.432,-0.4 0.444,-0.378 0.452,-0.352C0.46,-0.326 0.464,-0.297 0.464,-0.267L0.464,-0.247ZM0.345,-0.282C0.346,-0.317 0.339,-0.344 0.324,-0.364C0.309,-0.383 0.286,-0.393 0.255,-0.393C0.24,-0.393 0.226,-0.39 0.215,-0.384C0.203,-0.378 0.193,-0.371 0.186,-0.361C0.178,-0.351 0.172,-0.339 0.168,-0.325C0.164,-0.312 0.162,-0.298 0.161,-0.282L0.345,-0.282Z" style="fill:rgb(2,70,100);fill-rule:nonzero;"/>
                    </g>
                    <g transform="matrix(175,0,0,175,7244.08,1989.91)">
                        <path d="M0.443,-0.189C0.443,-0.156 0.437,-0.127 0.425,-0.102C0.412,-0.077 0.396,-0.056 0.375,-0.039C0.353,-0.023 0.329,-0.01 0.3,-0.001C0.272,0.007 0.242,0.011 0.209,0.011C0.188,0.011 0.167,0.009 0.149,0.006C0.13,0.002 0.113,-0.002 0.099,-0.007C0.085,-0.012 0.073,-0.017 0.063,-0.023C0.054,-0.028 0.047,-0.033 0.042,-0.038C0.038,-0.042 0.035,-0.048 0.033,-0.056C0.032,-0.064 0.031,-0.075 0.031,-0.09C0.031,-0.1 0.031,-0.109 0.032,-0.116C0.032,-0.123 0.033,-0.128 0.035,-0.132C0.036,-0.137 0.038,-0.14 0.041,-0.141C0.043,-0.143 0.046,-0.144 0.049,-0.144C0.054,-0.144 0.06,-0.141 0.069,-0.136C0.077,-0.131 0.088,-0.125 0.101,-0.118C0.114,-0.112 0.129,-0.106 0.147,-0.1C0.165,-0.095 0.186,-0.092 0.21,-0.092C0.226,-0.092 0.24,-0.094 0.252,-0.098C0.264,-0.102 0.275,-0.107 0.283,-0.114C0.292,-0.121 0.299,-0.129 0.303,-0.139C0.308,-0.149 0.31,-0.16 0.31,-0.173C0.31,-0.187 0.306,-0.199 0.298,-0.21C0.291,-0.22 0.28,-0.229 0.268,-0.237C0.255,-0.245 0.241,-0.253 0.225,-0.26C0.209,-0.267 0.193,-0.274 0.176,-0.282C0.159,-0.29 0.142,-0.298 0.126,-0.308C0.111,-0.318 0.096,-0.33 0.084,-0.344C0.071,-0.358 0.061,-0.374 0.053,-0.393C0.045,-0.412 0.042,-0.435 0.042,-0.461C0.042,-0.491 0.047,-0.518 0.058,-0.541C0.07,-0.564 0.085,-0.583 0.104,-0.598C0.123,-0.613 0.145,-0.624 0.171,-0.632C0.197,-0.639 0.224,-0.643 0.253,-0.643C0.268,-0.643 0.283,-0.642 0.298,-0.64C0.313,-0.637 0.327,-0.634 0.34,-0.63C0.353,-0.626 0.365,-0.622 0.375,-0.617C0.385,-0.612 0.392,-0.608 0.395,-0.605C0.398,-0.602 0.4,-0.599 0.402,-0.597C0.403,-0.594 0.404,-0.591 0.405,-0.588C0.405,-0.584 0.406,-0.579 0.406,-0.573C0.407,-0.568 0.407,-0.561 0.407,-0.552C0.407,-0.543 0.406,-0.535 0.406,-0.528C0.406,-0.522 0.405,-0.516 0.404,-0.512C0.402,-0.508 0.401,-0.505 0.399,-0.503C0.397,-0.501 0.394,-0.5 0.39,-0.5C0.387,-0.5 0.381,-0.502 0.373,-0.507C0.365,-0.511 0.356,-0.516 0.344,-0.522C0.333,-0.527 0.32,-0.532 0.305,-0.536C0.29,-0.541 0.273,-0.543 0.255,-0.543C0.241,-0.543 0.229,-0.541 0.219,-0.538C0.208,-0.534 0.2,-0.53 0.193,-0.524C0.186,-0.518 0.18,-0.51 0.177,-0.502C0.174,-0.493 0.172,-0.485 0.172,-0.475C0.172,-0.461 0.176,-0.449 0.183,-0.439C0.191,-0.428 0.201,-0.419 0.214,-0.411C0.227,-0.403 0.242,-0.396 0.258,-0.389C0.274,-0.382 0.291,-0.375 0.308,-0.367C0.325,-0.359 0.341,-0.35 0.357,-0.34C0.374,-0.33 0.388,-0.318 0.401,-0.304C0.414,-0.291 0.424,-0.274 0.432,-0.256C0.439,-0.237 0.443,-0.215 0.443,-0.189Z" style="fill:rgb(2,70,100);fill-rule:nonzero;"/>
                    </g>
                    <g transform="matrix(175,0,0,175,7326.79,1989.91)">
                        <path d="M0.464,-0.247C0.464,-0.232 0.461,-0.221 0.454,-0.214C0.447,-0.207 0.438,-0.203 0.426,-0.203L0.161,-0.203C0.161,-0.185 0.163,-0.168 0.168,-0.153C0.172,-0.137 0.179,-0.125 0.189,-0.114C0.198,-0.103 0.211,-0.095 0.226,-0.09C0.241,-0.084 0.259,-0.082 0.28,-0.082C0.302,-0.082 0.321,-0.083 0.337,-0.086C0.353,-0.089 0.367,-0.093 0.379,-0.096C0.391,-0.1 0.401,-0.104 0.409,-0.107C0.417,-0.11 0.423,-0.111 0.428,-0.111C0.431,-0.111 0.433,-0.111 0.435,-0.11C0.437,-0.108 0.439,-0.106 0.44,-0.104C0.441,-0.101 0.442,-0.096 0.443,-0.091C0.443,-0.086 0.443,-0.079 0.443,-0.071C0.443,-0.064 0.443,-0.058 0.443,-0.052C0.443,-0.047 0.442,-0.043 0.441,-0.04C0.441,-0.036 0.44,-0.033 0.438,-0.031C0.437,-0.028 0.435,-0.026 0.433,-0.023C0.431,-0.021 0.425,-0.018 0.416,-0.014C0.407,-0.01 0.395,-0.006 0.38,-0.003C0.365,0.001 0.348,0.004 0.33,0.007C0.311,0.01 0.291,0.011 0.269,0.011C0.23,0.011 0.196,0.006 0.167,-0.003C0.138,-0.013 0.114,-0.028 0.094,-0.048C0.075,-0.068 0.06,-0.093 0.051,-0.123C0.041,-0.153 0.036,-0.189 0.036,-0.229C0.036,-0.268 0.041,-0.303 0.051,-0.334C0.061,-0.365 0.076,-0.392 0.095,-0.413C0.114,-0.435 0.138,-0.451 0.165,-0.463C0.193,-0.474 0.224,-0.48 0.258,-0.48C0.295,-0.48 0.326,-0.475 0.352,-0.464C0.378,-0.453 0.399,-0.438 0.416,-0.419C0.432,-0.4 0.444,-0.378 0.452,-0.352C0.46,-0.326 0.464,-0.297 0.464,-0.267L0.464,-0.247ZM0.345,-0.282C0.346,-0.317 0.339,-0.344 0.324,-0.364C0.309,-0.383 0.286,-0.393 0.255,-0.393C0.24,-0.393 0.226,-0.39 0.215,-0.384C0.203,-0.378 0.193,-0.371 0.186,-0.361C0.178,-0.351 0.172,-0.339 0.168,-0.325C0.164,-0.312 0.162,-0.298 0.161,-0.282L0.345,-0.282Z" style="fill:rgb(2,70,100);fill-rule:nonzero;"/>
                    </g>
                    <g transform="matrix(175,0,0,175,7414.89,1989.91)">
                        <path d="M0.185,-0.017C0.185,-0.013 0.184,-0.01 0.182,-0.008C0.18,-0.006 0.176,-0.004 0.172,-0.002C0.167,-0 0.161,0.001 0.153,0.002C0.145,0.003 0.135,0.003 0.123,0.003C0.111,0.003 0.101,0.003 0.093,0.002C0.085,0.001 0.079,-0 0.074,-0.002C0.07,-0.004 0.066,-0.006 0.064,-0.008C0.063,-0.01 0.062,-0.013 0.062,-0.017L0.062,-0.451C0.062,-0.454 0.063,-0.457 0.064,-0.46C0.066,-0.462 0.07,-0.464 0.074,-0.466C0.079,-0.468 0.085,-0.469 0.093,-0.47C0.101,-0.471 0.111,-0.472 0.123,-0.472C0.135,-0.472 0.145,-0.471 0.153,-0.47C0.161,-0.469 0.167,-0.468 0.172,-0.466C0.176,-0.464 0.18,-0.462 0.182,-0.46C0.184,-0.457 0.185,-0.454 0.185,-0.451L0.185,-0.017ZM0.194,-0.6C0.194,-0.575 0.189,-0.558 0.179,-0.548C0.169,-0.539 0.15,-0.534 0.123,-0.534C0.095,-0.534 0.076,-0.539 0.067,-0.548C0.057,-0.557 0.052,-0.573 0.052,-0.597C0.052,-0.622 0.057,-0.639 0.067,-0.649C0.077,-0.658 0.096,-0.663 0.124,-0.663C0.151,-0.663 0.169,-0.658 0.179,-0.649C0.189,-0.64 0.194,-0.623 0.194,-0.6Z" style="fill:rgb(2,70,100);fill-rule:nonzero;"/>
                    </g>
                    <g transform="matrix(175,0,0,175,7457.87,1989.91)">
                        <path d="M0.368,-0.14C0.368,-0.115 0.364,-0.093 0.354,-0.074C0.345,-0.055 0.332,-0.04 0.315,-0.027C0.298,-0.014 0.278,-0.005 0.255,0.002C0.232,0.008 0.207,0.011 0.18,0.011C0.163,0.011 0.148,0.01 0.133,0.008C0.118,0.005 0.105,0.002 0.093,-0.002C0.082,-0.005 0.072,-0.009 0.064,-0.013C0.056,-0.017 0.05,-0.021 0.047,-0.024C0.043,-0.028 0.041,-0.033 0.039,-0.04C0.037,-0.048 0.036,-0.058 0.036,-0.073C0.036,-0.082 0.036,-0.09 0.037,-0.095C0.037,-0.101 0.038,-0.106 0.04,-0.109C0.041,-0.113 0.042,-0.115 0.044,-0.116C0.046,-0.117 0.049,-0.118 0.052,-0.118C0.055,-0.118 0.061,-0.116 0.068,-0.112C0.075,-0.108 0.083,-0.103 0.094,-0.098C0.104,-0.093 0.116,-0.089 0.13,-0.084C0.144,-0.08 0.16,-0.078 0.177,-0.078C0.188,-0.078 0.198,-0.079 0.207,-0.082C0.215,-0.084 0.223,-0.087 0.229,-0.091C0.236,-0.096 0.24,-0.101 0.244,-0.107C0.247,-0.114 0.249,-0.121 0.249,-0.13C0.249,-0.14 0.246,-0.148 0.24,-0.155C0.233,-0.162 0.226,-0.168 0.216,-0.173C0.206,-0.179 0.194,-0.183 0.182,-0.188C0.169,-0.193 0.156,-0.198 0.143,-0.203C0.13,-0.209 0.117,-0.215 0.105,-0.222C0.092,-0.229 0.081,-0.238 0.071,-0.249C0.061,-0.259 0.053,-0.271 0.047,-0.286C0.041,-0.301 0.038,-0.318 0.038,-0.339C0.038,-0.36 0.042,-0.379 0.05,-0.396C0.058,-0.414 0.07,-0.429 0.085,-0.441C0.101,-0.453 0.119,-0.463 0.141,-0.47C0.163,-0.477 0.188,-0.48 0.215,-0.48C0.229,-0.48 0.242,-0.479 0.255,-0.477C0.268,-0.475 0.28,-0.473 0.29,-0.47C0.3,-0.467 0.309,-0.464 0.316,-0.46C0.324,-0.457 0.329,-0.454 0.332,-0.451C0.335,-0.449 0.337,-0.447 0.338,-0.444C0.34,-0.442 0.341,-0.439 0.341,-0.435C0.342,-0.432 0.343,-0.428 0.343,-0.423C0.344,-0.418 0.344,-0.411 0.344,-0.404C0.344,-0.395 0.344,-0.388 0.343,-0.382C0.343,-0.377 0.342,-0.372 0.341,-0.369C0.339,-0.366 0.338,-0.364 0.336,-0.363C0.334,-0.361 0.332,-0.361 0.329,-0.361C0.326,-0.361 0.322,-0.363 0.315,-0.366C0.309,-0.369 0.302,-0.373 0.292,-0.377C0.283,-0.381 0.272,-0.385 0.26,-0.388C0.248,-0.391 0.234,-0.393 0.218,-0.393C0.207,-0.393 0.198,-0.392 0.189,-0.39C0.181,-0.387 0.175,-0.384 0.169,-0.38C0.164,-0.376 0.16,-0.371 0.158,-0.365C0.155,-0.359 0.154,-0.353 0.154,-0.347C0.154,-0.337 0.157,-0.328 0.163,-0.321C0.169,-0.314 0.177,-0.308 0.188,-0.303C0.198,-0.298 0.209,-0.293 0.222,-0.289C0.235,-0.284 0.248,-0.279 0.261,-0.274C0.274,-0.268 0.287,-0.262 0.3,-0.255C0.313,-0.248 0.324,-0.239 0.334,-0.229C0.345,-0.218 0.353,-0.206 0.359,-0.191C0.365,-0.177 0.368,-0.16 0.368,-0.14Z" style="fill:rgb(2,70,100);fill-rule:nonzero;"/>
                    </g>
                    <g transform="matrix(175,0,0,175,7527.68,1989.91)">
                        <path d="M0.754,-0.017C0.754,-0.013 0.753,-0.01 0.751,-0.008C0.75,-0.006 0.746,-0.004 0.742,-0.002C0.737,-0 0.731,0.001 0.723,0.002C0.715,0.003 0.705,0.003 0.693,0.003C0.681,0.003 0.671,0.003 0.663,0.002C0.655,0.001 0.649,-0 0.644,-0.002C0.64,-0.004 0.636,-0.006 0.635,-0.008C0.633,-0.01 0.632,-0.013 0.632,-0.017L0.632,-0.275C0.632,-0.29 0.63,-0.303 0.628,-0.315C0.625,-0.327 0.621,-0.337 0.615,-0.346C0.609,-0.355 0.602,-0.361 0.594,-0.366C0.585,-0.371 0.575,-0.373 0.563,-0.373C0.548,-0.373 0.533,-0.367 0.518,-0.356C0.503,-0.345 0.487,-0.328 0.469,-0.306L0.469,-0.017C0.469,-0.013 0.468,-0.01 0.466,-0.008C0.464,-0.006 0.461,-0.004 0.456,-0.002C0.452,-0 0.445,0.001 0.438,0.002C0.43,0.003 0.42,0.003 0.408,0.003C0.396,0.003 0.386,0.003 0.378,0.002C0.371,0.001 0.364,-0 0.36,-0.002C0.355,-0.004 0.352,-0.006 0.35,-0.008C0.348,-0.01 0.347,-0.013 0.347,-0.017L0.347,-0.275C0.347,-0.29 0.345,-0.303 0.343,-0.315C0.34,-0.327 0.336,-0.337 0.33,-0.346C0.325,-0.355 0.317,-0.361 0.309,-0.366C0.3,-0.371 0.29,-0.373 0.278,-0.373C0.263,-0.373 0.248,-0.367 0.233,-0.356C0.218,-0.345 0.202,-0.328 0.185,-0.306L0.185,-0.017C0.185,-0.013 0.184,-0.01 0.182,-0.008C0.18,-0.006 0.176,-0.004 0.172,-0.002C0.167,-0 0.161,0.001 0.153,0.002C0.145,0.003 0.135,0.003 0.123,0.003C0.111,0.003 0.101,0.003 0.093,0.002C0.085,0.001 0.079,-0 0.074,-0.002C0.07,-0.004 0.066,-0.006 0.064,-0.008C0.063,-0.01 0.062,-0.013 0.062,-0.017L0.062,-0.452C0.062,-0.455 0.062,-0.458 0.064,-0.461C0.066,-0.463 0.069,-0.465 0.073,-0.467C0.077,-0.468 0.082,-0.47 0.089,-0.47C0.096,-0.471 0.104,-0.472 0.114,-0.472C0.125,-0.472 0.133,-0.471 0.14,-0.47C0.147,-0.47 0.152,-0.468 0.156,-0.467C0.16,-0.465 0.162,-0.463 0.164,-0.461C0.166,-0.458 0.167,-0.455 0.167,-0.452L0.167,-0.402C0.191,-0.428 0.215,-0.447 0.239,-0.46C0.262,-0.473 0.287,-0.48 0.313,-0.48C0.331,-0.48 0.347,-0.478 0.362,-0.474C0.376,-0.471 0.389,-0.465 0.4,-0.458C0.411,-0.451 0.421,-0.443 0.429,-0.433C0.437,-0.423 0.444,-0.412 0.45,-0.4C0.463,-0.414 0.476,-0.426 0.488,-0.437C0.501,-0.447 0.513,-0.455 0.525,-0.461C0.537,-0.468 0.55,-0.472 0.562,-0.475C0.574,-0.478 0.586,-0.48 0.599,-0.48C0.628,-0.48 0.653,-0.475 0.672,-0.465C0.692,-0.456 0.708,-0.442 0.72,-0.426C0.733,-0.409 0.741,-0.389 0.747,-0.367C0.752,-0.344 0.754,-0.32 0.754,-0.295L0.754,-0.017Z" style="fill:rgb(2,70,100);fill-rule:nonzero;"/>
                    </g>
                    <g transform="matrix(175,0,0,175,7670.04,1989.91)">
                        <path d="M0.502,-0.239C0.502,-0.202 0.497,-0.168 0.487,-0.137C0.478,-0.107 0.463,-0.08 0.443,-0.058C0.423,-0.036 0.398,-0.019 0.368,-0.007C0.338,0.005 0.303,0.011 0.263,0.011C0.224,0.011 0.191,0.006 0.162,-0.005C0.133,-0.016 0.11,-0.031 0.091,-0.052C0.072,-0.072 0.058,-0.097 0.049,-0.127C0.04,-0.157 0.035,-0.192 0.035,-0.23C0.035,-0.267 0.04,-0.301 0.05,-0.332C0.06,-0.363 0.075,-0.389 0.095,-0.411C0.115,-0.433 0.139,-0.45 0.169,-0.462C0.199,-0.474 0.234,-0.48 0.274,-0.48C0.313,-0.48 0.347,-0.475 0.375,-0.464C0.404,-0.454 0.428,-0.438 0.447,-0.417C0.465,-0.397 0.479,-0.372 0.488,-0.342C0.497,-0.312 0.502,-0.278 0.502,-0.239ZM0.375,-0.234C0.375,-0.255 0.374,-0.275 0.37,-0.293C0.367,-0.311 0.361,-0.327 0.353,-0.34C0.345,-0.354 0.334,-0.364 0.321,-0.372C0.307,-0.379 0.29,-0.383 0.27,-0.383C0.251,-0.383 0.235,-0.379 0.222,-0.373C0.208,-0.366 0.197,-0.356 0.188,-0.344C0.179,-0.331 0.173,-0.315 0.168,-0.297C0.164,-0.279 0.162,-0.258 0.162,-0.235C0.162,-0.214 0.163,-0.194 0.167,-0.176C0.171,-0.158 0.176,-0.142 0.184,-0.129C0.192,-0.116 0.203,-0.105 0.217,-0.098C0.23,-0.091 0.247,-0.087 0.268,-0.087C0.286,-0.087 0.302,-0.09 0.316,-0.097C0.33,-0.104 0.341,-0.113 0.35,-0.126C0.358,-0.139 0.365,-0.154 0.369,-0.172C0.373,-0.19 0.375,-0.211 0.375,-0.234Z" style="fill:rgb(2,70,100);fill-rule:nonzero;"/>
                    </g>
                    <g transform="matrix(175,0,0,175,7764.12,1989.91)">
                        <path d="M0.185,-0.017C0.185,-0.013 0.184,-0.01 0.182,-0.008C0.18,-0.006 0.176,-0.004 0.172,-0.002C0.167,-0 0.161,0.001 0.153,0.002C0.145,0.003 0.135,0.003 0.123,0.003C0.111,0.003 0.101,0.003 0.093,0.002C0.085,0.001 0.079,-0 0.074,-0.002C0.07,-0.004 0.066,-0.006 0.064,-0.008C0.063,-0.01 0.062,-0.013 0.062,-0.017L0.062,-0.659C0.062,-0.662 0.063,-0.665 0.064,-0.667C0.066,-0.67 0.07,-0.672 0.074,-0.674C0.079,-0.676 0.085,-0.677 0.093,-0.678C0.101,-0.679 0.111,-0.68 0.123,-0.68C0.135,-0.68 0.145,-0.679 0.153,-0.678C0.161,-0.677 0.167,-0.676 0.172,-0.674C0.176,-0.672 0.18,-0.67 0.182,-0.667C0.184,-0.665 0.185,-0.662 0.185,-0.659L0.185,-0.017Z" style="fill:rgb(2,70,100);fill-rule:nonzero;"/>
                    </g>
                    <g transform="matrix(175,0,0,175,7807.1,1989.91)">
                        <path d="M0.502,-0.239C0.502,-0.202 0.497,-0.168 0.487,-0.137C0.478,-0.107 0.463,-0.08 0.443,-0.058C0.423,-0.036 0.398,-0.019 0.368,-0.007C0.338,0.005 0.303,0.011 0.263,0.011C0.224,0.011 0.191,0.006 0.162,-0.005C0.133,-0.016 0.11,-0.031 0.091,-0.052C0.072,-0.072 0.058,-0.097 0.049,-0.127C0.04,-0.157 0.035,-0.192 0.035,-0.23C0.035,-0.267 0.04,-0.301 0.05,-0.332C0.06,-0.363 0.075,-0.389 0.095,-0.411C0.115,-0.433 0.139,-0.45 0.169,-0.462C0.199,-0.474 0.234,-0.48 0.274,-0.48C0.313,-0.48 0.347,-0.475 0.375,-0.464C0.404,-0.454 0.428,-0.438 0.447,-0.417C0.465,-0.397 0.479,-0.372 0.488,-0.342C0.497,-0.312 0.502,-0.278 0.502,-0.239ZM0.375,-0.234C0.375,-0.255 0.374,-0.275 0.37,-0.293C0.367,-0.311 0.361,-0.327 0.353,-0.34C0.345,-0.354 0.334,-0.364 0.321,-0.372C0.307,-0.379 0.29,-0.383 0.27,-0.383C0.251,-0.383 0.235,-0.379 0.222,-0.373C0.208,-0.366 0.197,-0.356 0.188,-0.344C0.179,-0.331 0.173,-0.315 0.168,-0.297C0.164,-0.279 0.162,-0.258 0.162,-0.235C0.162,-0.214 0.163,-0.194 0.167,-0.176C0.171,-0.158 0.176,-0.142 0.184,-0.129C0.192,-0.116 0.203,-0.105 0.217,-0.098C0.23,-0.091 0.247,-0.087 0.268,-0.087C0.286,-0.087 0.302,-0.09 0.316,-0.097C0.33,-0.104 0.341,-0.113 0.35,-0.126C0.358,-0.139 0.365,-0.154 0.369,-0.172C0.373,-0.19 0.375,-0.211 0.375,-0.234Z" style="fill:rgb(2,70,100);fill-rule:nonzero;"/>
                    </g>
                    <g transform="matrix(175,0,0,175,7901.18,1989.91)">
                        <path d="M0.454,-0.422C0.454,-0.406 0.452,-0.395 0.449,-0.387C0.445,-0.38 0.441,-0.376 0.436,-0.376L0.384,-0.376C0.391,-0.368 0.397,-0.359 0.4,-0.349C0.403,-0.339 0.404,-0.329 0.404,-0.318C0.404,-0.293 0.4,-0.27 0.392,-0.251C0.383,-0.231 0.371,-0.214 0.355,-0.201C0.339,-0.187 0.32,-0.177 0.298,-0.17C0.276,-0.163 0.251,-0.16 0.224,-0.16C0.21,-0.16 0.196,-0.161 0.184,-0.165C0.171,-0.168 0.161,-0.172 0.154,-0.177C0.15,-0.173 0.147,-0.167 0.144,-0.162C0.141,-0.156 0.139,-0.149 0.139,-0.142C0.139,-0.133 0.143,-0.125 0.152,-0.119C0.16,-0.113 0.172,-0.11 0.187,-0.109L0.292,-0.105C0.317,-0.104 0.339,-0.101 0.359,-0.094C0.378,-0.088 0.394,-0.08 0.407,-0.069C0.421,-0.058 0.431,-0.045 0.438,-0.03C0.445,-0.014 0.448,0.003 0.448,0.022C0.448,0.044 0.444,0.064 0.434,0.083C0.425,0.102 0.41,0.119 0.392,0.133C0.373,0.147 0.349,0.158 0.321,0.166C0.292,0.174 0.259,0.178 0.221,0.178C0.184,0.178 0.152,0.175 0.126,0.169C0.1,0.164 0.078,0.155 0.061,0.145C0.045,0.135 0.032,0.122 0.025,0.108C0.017,0.093 0.013,0.077 0.013,0.06C0.013,0.049 0.015,0.039 0.017,0.029C0.02,0.02 0.024,0.01 0.03,0.001C0.035,-0.008 0.042,-0.016 0.049,-0.024C0.057,-0.033 0.066,-0.04 0.076,-0.048C0.062,-0.055 0.051,-0.066 0.044,-0.078C0.036,-0.091 0.032,-0.105 0.032,-0.121C0.032,-0.14 0.037,-0.157 0.045,-0.173C0.054,-0.189 0.066,-0.203 0.08,-0.216C0.068,-0.227 0.059,-0.241 0.052,-0.257C0.045,-0.273 0.042,-0.293 0.042,-0.316C0.042,-0.342 0.046,-0.365 0.055,-0.385C0.064,-0.405 0.077,-0.421 0.093,-0.435C0.109,-0.449 0.128,-0.46 0.15,-0.467C0.172,-0.474 0.196,-0.478 0.223,-0.478C0.237,-0.478 0.25,-0.477 0.262,-0.476C0.275,-0.474 0.287,-0.472 0.297,-0.469L0.436,-0.469C0.441,-0.469 0.446,-0.465 0.449,-0.458C0.452,-0.451 0.454,-0.439 0.454,-0.422ZM0.296,-0.319C0.296,-0.342 0.29,-0.361 0.277,-0.374C0.264,-0.387 0.245,-0.393 0.222,-0.393C0.21,-0.393 0.199,-0.391 0.19,-0.387C0.181,-0.383 0.173,-0.377 0.167,-0.37C0.161,-0.363 0.157,-0.355 0.154,-0.346C0.151,-0.337 0.149,-0.327 0.149,-0.317C0.149,-0.295 0.156,-0.277 0.169,-0.264C0.182,-0.252 0.2,-0.245 0.223,-0.245C0.236,-0.245 0.246,-0.247 0.255,-0.251C0.264,-0.255 0.272,-0.26 0.278,-0.267C0.284,-0.274 0.289,-0.282 0.292,-0.291C0.295,-0.3 0.296,-0.309 0.296,-0.319ZM0.325,0.029C0.325,0.014 0.319,0.003 0.308,-0.005C0.296,-0.013 0.28,-0.017 0.259,-0.018L0.172,-0.02C0.163,-0.014 0.157,-0.008 0.152,-0.002C0.147,0.003 0.142,0.009 0.139,0.014C0.136,0.019 0.134,0.024 0.133,0.029C0.132,0.034 0.132,0.039 0.132,0.044C0.132,0.061 0.14,0.073 0.156,0.082C0.173,0.09 0.196,0.094 0.226,0.094C0.245,0.094 0.26,0.092 0.273,0.089C0.286,0.085 0.296,0.08 0.304,0.074C0.312,0.068 0.317,0.061 0.32,0.053C0.324,0.045 0.325,0.037 0.325,0.029Z" style="fill:rgb(2,70,100);fill-rule:nonzero;"/>
                    </g>
                    <g transform="matrix(175,0,0,175,7984.15,1989.91)">
                        <path d="M0.314,-0L0.261,0.154C0.258,0.162 0.25,0.168 0.237,0.172C0.224,0.175 0.205,0.177 0.18,0.177C0.167,0.177 0.157,0.177 0.149,0.176C0.141,0.174 0.135,0.173 0.131,0.17C0.127,0.167 0.125,0.164 0.125,0.16C0.125,0.156 0.126,0.152 0.128,0.146L0.186,-0C0.182,-0.002 0.178,-0.005 0.175,-0.009C0.171,-0.013 0.169,-0.017 0.167,-0.022L0.017,-0.422C0.013,-0.434 0.011,-0.442 0.011,-0.448C0.011,-0.455 0.013,-0.459 0.017,-0.463C0.021,-0.466 0.027,-0.468 0.036,-0.47C0.046,-0.471 0.058,-0.472 0.073,-0.472C0.087,-0.472 0.098,-0.471 0.106,-0.471C0.115,-0.47 0.121,-0.469 0.125,-0.467C0.13,-0.465 0.133,-0.462 0.136,-0.458C0.138,-0.454 0.14,-0.448 0.143,-0.441L0.245,-0.149L0.247,-0.149L0.34,-0.447C0.342,-0.455 0.345,-0.461 0.348,-0.464C0.351,-0.466 0.356,-0.468 0.363,-0.47C0.37,-0.471 0.383,-0.472 0.401,-0.472C0.415,-0.472 0.427,-0.471 0.436,-0.47C0.445,-0.468 0.452,-0.466 0.456,-0.462C0.461,-0.459 0.463,-0.454 0.463,-0.448C0.463,-0.442 0.462,-0.435 0.459,-0.427L0.314,-0Z" style="fill:rgb(2,70,100);fill-rule:nonzero;"/>
                    </g>
                    <g transform="matrix(175,0,0,175,8106.6,1989.91)">
                        <path d="M0.261,-0.668C0.234,-0.604 0.213,-0.539 0.199,-0.471C0.185,-0.404 0.178,-0.335 0.178,-0.264C0.178,-0.192 0.185,-0.123 0.199,-0.056C0.214,0.011 0.234,0.077 0.261,0.142C0.263,0.147 0.264,0.151 0.264,0.155C0.264,0.159 0.262,0.162 0.258,0.165C0.255,0.167 0.249,0.169 0.242,0.17C0.235,0.172 0.224,0.172 0.211,0.172C0.202,0.172 0.194,0.172 0.188,0.171C0.181,0.171 0.176,0.17 0.172,0.169C0.167,0.168 0.164,0.166 0.161,0.164C0.159,0.163 0.157,0.16 0.156,0.158C0.139,0.124 0.123,0.09 0.11,0.056C0.097,0.022 0.087,-0.013 0.078,-0.048C0.069,-0.083 0.063,-0.118 0.059,-0.154C0.054,-0.19 0.052,-0.226 0.052,-0.263C0.052,-0.299 0.054,-0.335 0.059,-0.371C0.063,-0.406 0.07,-0.442 0.079,-0.477C0.087,-0.512 0.098,-0.547 0.111,-0.581C0.124,-0.616 0.139,-0.65 0.156,-0.684C0.157,-0.686 0.158,-0.687 0.16,-0.688C0.162,-0.69 0.165,-0.691 0.169,-0.692C0.173,-0.693 0.178,-0.694 0.185,-0.695C0.191,-0.695 0.2,-0.695 0.21,-0.695C0.222,-0.695 0.232,-0.695 0.239,-0.694C0.247,-0.692 0.252,-0.691 0.256,-0.688C0.26,-0.686 0.262,-0.683 0.263,-0.68C0.263,-0.676 0.263,-0.672 0.261,-0.668Z" style="fill:rgb(2,70,100);fill-rule:nonzero;"/>
                    </g>
                    <g transform="matrix(175,0,0,175,8161.12,1989.91)">
                        <path d="M0.586,-0.048C0.59,-0.036 0.593,-0.027 0.594,-0.02C0.595,-0.013 0.593,-0.008 0.59,-0.005C0.586,-0.001 0.58,0.001 0.571,0.002C0.562,0.003 0.549,0.003 0.533,0.003C0.517,0.003 0.504,0.003 0.494,0.002C0.485,0.002 0.478,0.001 0.473,-0.001C0.468,-0.002 0.465,-0.004 0.463,-0.007C0.461,-0.009 0.459,-0.013 0.458,-0.017L0.416,-0.144L0.178,-0.144L0.138,-0.021C0.137,-0.016 0.135,-0.012 0.133,-0.009C0.131,-0.006 0.128,-0.003 0.123,-0.002C0.118,0 0.111,0.001 0.103,0.002C0.094,0.003 0.083,0.003 0.069,0.003C0.054,0.003 0.042,0.002 0.034,0.001C0.025,0 0.019,-0.002 0.016,-0.006C0.013,-0.009 0.012,-0.015 0.013,-0.021C0.014,-0.028 0.016,-0.037 0.02,-0.049L0.215,-0.609C0.217,-0.615 0.219,-0.619 0.222,-0.623C0.224,-0.626 0.228,-0.629 0.234,-0.631C0.24,-0.632 0.248,-0.634 0.258,-0.634C0.268,-0.635 0.281,-0.635 0.298,-0.635C0.317,-0.635 0.332,-0.635 0.344,-0.634C0.355,-0.634 0.364,-0.632 0.37,-0.631C0.377,-0.629 0.381,-0.626 0.384,-0.623C0.387,-0.619 0.389,-0.614 0.391,-0.608L0.586,-0.048ZM0.296,-0.511L0.296,-0.511L0.207,-0.243L0.386,-0.243L0.296,-0.511Z" style="fill:rgb(2,70,100);fill-rule:nonzero;"/>
                    </g>
                    <g transform="matrix(175,0,0,175,8267.16,1989.91)">
                        <path d="M0.59,-0.045C0.59,-0.037 0.589,-0.031 0.586,-0.025C0.583,-0.019 0.58,-0.014 0.575,-0.01C0.571,-0.006 0.566,-0.003 0.56,-0.002C0.554,0 0.548,0.001 0.542,0.001L0.487,0.001C0.475,0.001 0.466,-0 0.457,-0.002C0.449,-0.005 0.441,-0.009 0.434,-0.015C0.427,-0.021 0.421,-0.029 0.414,-0.039C0.408,-0.05 0.4,-0.063 0.392,-0.079L0.235,-0.375C0.226,-0.392 0.216,-0.411 0.207,-0.431C0.198,-0.452 0.189,-0.472 0.182,-0.491L0.181,-0.491C0.182,-0.467 0.183,-0.444 0.184,-0.421C0.184,-0.397 0.185,-0.373 0.185,-0.349L0.185,-0.018C0.185,-0.015 0.184,-0.012 0.182,-0.009C0.18,-0.007 0.177,-0.004 0.173,-0.003C0.168,-0.001 0.162,0 0.155,0.001C0.147,0.002 0.138,0.003 0.126,0.003C0.115,0.003 0.105,0.002 0.098,0.001C0.09,0 0.084,-0.001 0.08,-0.003C0.076,-0.004 0.073,-0.007 0.071,-0.009C0.07,-0.012 0.069,-0.015 0.069,-0.018L0.069,-0.586C0.069,-0.601 0.073,-0.613 0.082,-0.62C0.091,-0.628 0.102,-0.632 0.115,-0.632L0.184,-0.632C0.196,-0.632 0.207,-0.631 0.215,-0.629C0.224,-0.627 0.231,-0.623 0.238,-0.618C0.245,-0.613 0.251,-0.607 0.257,-0.598C0.263,-0.589 0.269,-0.579 0.275,-0.566L0.398,-0.335C0.405,-0.321 0.412,-0.307 0.419,-0.294C0.426,-0.28 0.433,-0.267 0.439,-0.253C0.446,-0.24 0.452,-0.226 0.458,-0.213C0.465,-0.2 0.471,-0.187 0.477,-0.174L0.477,-0.174C0.476,-0.197 0.475,-0.221 0.475,-0.246C0.474,-0.27 0.474,-0.294 0.474,-0.316L0.474,-0.613C0.474,-0.616 0.475,-0.619 0.477,-0.622C0.479,-0.624 0.482,-0.626 0.487,-0.628C0.491,-0.63 0.497,-0.632 0.505,-0.633C0.512,-0.633 0.522,-0.634 0.534,-0.634C0.545,-0.634 0.554,-0.633 0.562,-0.633C0.569,-0.632 0.575,-0.63 0.579,-0.628C0.583,-0.626 0.586,-0.624 0.587,-0.622C0.589,-0.619 0.59,-0.616 0.59,-0.613L0.59,-0.045Z" style="fill:rgb(2,70,100);fill-rule:nonzero;"/>
                    </g>
                    <g transform="matrix(175,0,0,175,8382.43,1989.91)">
                        <path d="M0.443,-0.189C0.443,-0.156 0.437,-0.127 0.425,-0.102C0.412,-0.077 0.396,-0.056 0.375,-0.039C0.353,-0.023 0.329,-0.01 0.3,-0.001C0.272,0.007 0.242,0.011 0.209,0.011C0.188,0.011 0.167,0.009 0.149,0.006C0.13,0.002 0.113,-0.002 0.099,-0.007C0.085,-0.012 0.073,-0.017 0.063,-0.023C0.054,-0.028 0.047,-0.033 0.042,-0.038C0.038,-0.042 0.035,-0.048 0.033,-0.056C0.032,-0.064 0.031,-0.075 0.031,-0.09C0.031,-0.1 0.031,-0.109 0.032,-0.116C0.032,-0.123 0.033,-0.128 0.035,-0.132C0.036,-0.137 0.038,-0.14 0.041,-0.141C0.043,-0.143 0.046,-0.144 0.049,-0.144C0.054,-0.144 0.06,-0.141 0.069,-0.136C0.077,-0.131 0.088,-0.125 0.101,-0.118C0.114,-0.112 0.129,-0.106 0.147,-0.1C0.165,-0.095 0.186,-0.092 0.21,-0.092C0.226,-0.092 0.24,-0.094 0.252,-0.098C0.264,-0.102 0.275,-0.107 0.283,-0.114C0.292,-0.121 0.299,-0.129 0.303,-0.139C0.308,-0.149 0.31,-0.16 0.31,-0.173C0.31,-0.187 0.306,-0.199 0.298,-0.21C0.291,-0.22 0.28,-0.229 0.268,-0.237C0.255,-0.245 0.241,-0.253 0.225,-0.26C0.209,-0.267 0.193,-0.274 0.176,-0.282C0.159,-0.29 0.142,-0.298 0.126,-0.308C0.111,-0.318 0.096,-0.33 0.084,-0.344C0.071,-0.358 0.061,-0.374 0.053,-0.393C0.045,-0.412 0.042,-0.435 0.042,-0.461C0.042,-0.491 0.047,-0.518 0.058,-0.541C0.07,-0.564 0.085,-0.583 0.104,-0.598C0.123,-0.613 0.145,-0.624 0.171,-0.632C0.197,-0.639 0.224,-0.643 0.253,-0.643C0.268,-0.643 0.283,-0.642 0.298,-0.64C0.313,-0.637 0.327,-0.634 0.34,-0.63C0.353,-0.626 0.365,-0.622 0.375,-0.617C0.385,-0.612 0.392,-0.608 0.395,-0.605C0.398,-0.602 0.4,-0.599 0.402,-0.597C0.403,-0.594 0.404,-0.591 0.405,-0.588C0.405,-0.584 0.406,-0.579 0.406,-0.573C0.407,-0.568 0.407,-0.561 0.407,-0.552C0.407,-0.543 0.406,-0.535 0.406,-0.528C0.406,-0.522 0.405,-0.516 0.404,-0.512C0.402,-0.508 0.401,-0.505 0.399,-0.503C0.397,-0.501 0.394,-0.5 0.39,-0.5C0.387,-0.5 0.381,-0.502 0.373,-0.507C0.365,-0.511 0.356,-0.516 0.344,-0.522C0.333,-0.527 0.32,-0.532 0.305,-0.536C0.29,-0.541 0.273,-0.543 0.255,-0.543C0.241,-0.543 0.229,-0.541 0.219,-0.538C0.208,-0.534 0.2,-0.53 0.193,-0.524C0.186,-0.518 0.18,-0.51 0.177,-0.502C0.174,-0.493 0.172,-0.485 0.172,-0.475C0.172,-0.461 0.176,-0.449 0.183,-0.439C0.191,-0.428 0.201,-0.419 0.214,-0.411C0.227,-0.403 0.242,-0.396 0.258,-0.389C0.274,-0.382 0.291,-0.375 0.308,-0.367C0.325,-0.359 0.341,-0.35 0.357,-0.34C0.374,-0.33 0.388,-0.318 0.401,-0.304C0.414,-0.291 0.424,-0.274 0.432,-0.256C0.439,-0.237 0.443,-0.215 0.443,-0.189Z" style="fill:rgb(2,70,100);fill-rule:nonzero;"/>
                    </g>
                    <g transform="matrix(175,0,0,175,8465.15,1989.91)">
                        <path d="M0.259,-0.263C0.259,-0.226 0.257,-0.19 0.252,-0.154C0.248,-0.118 0.242,-0.083 0.233,-0.048C0.225,-0.013 0.214,0.022 0.201,0.056C0.188,0.09 0.173,0.124 0.155,0.158C0.154,0.16 0.153,0.163 0.15,0.164C0.148,0.166 0.144,0.168 0.14,0.169C0.135,0.17 0.13,0.171 0.124,0.171C0.117,0.172 0.109,0.172 0.1,0.172C0.087,0.172 0.076,0.172 0.069,0.17C0.062,0.169 0.056,0.167 0.053,0.165C0.049,0.162 0.047,0.159 0.047,0.155C0.047,0.151 0.048,0.147 0.05,0.142C0.077,0.078 0.098,0.012 0.112,-0.055C0.126,-0.123 0.133,-0.192 0.133,-0.264C0.133,-0.335 0.126,-0.404 0.112,-0.471C0.098,-0.539 0.077,-0.604 0.05,-0.668C0.048,-0.672 0.048,-0.676 0.048,-0.68C0.049,-0.683 0.051,-0.686 0.055,-0.688C0.059,-0.691 0.065,-0.692 0.072,-0.694C0.079,-0.695 0.089,-0.695 0.101,-0.695C0.111,-0.695 0.119,-0.695 0.126,-0.695C0.132,-0.694 0.138,-0.693 0.142,-0.692C0.146,-0.691 0.149,-0.69 0.151,-0.688C0.153,-0.687 0.154,-0.686 0.155,-0.684C0.189,-0.616 0.215,-0.547 0.232,-0.477C0.25,-0.407 0.259,-0.336 0.259,-0.263Z" style="fill:rgb(2,70,100);fill-rule:nonzero;"/>
                    </g>
                </g>
                <g transform="matrix(1,0,0,1,1342.08,-1615.92)">
                    <g transform="matrix(0.29891,0,0,0.84927,-15203.9,-1392.42)">
                        <path d="M51198,3879.22L51217,3879.22L51244.2,3823.18L51281.4,3931.43L51309,3787.74L51340.3,3958.32L51367.4,3804.86L51394.5,3879.22L51415.1,3879.22" style="fill:none;stroke:rgb(2,70,100);stroke-width:19.25px;"/>
                    </g>
                    <g transform="matrix(0.185327,0,0,-0.579462,9.40227,3717.83)">
                        <path d="M441.683,3131.08L487.044,3226.49L396.322,3226.49L441.683,3131.08Z" style="fill:rgb(2,70,100);stroke:rgb(2,70,100);stroke-width:29.17px;"/>
                    </g>
                    <g transform="matrix(0.185327,0,0,-0.579462,91.0799,3717.83)">
                        <path d="M441.683,3131.08L487.044,3226.49L396.322,3226.49L441.683,3131.08Z" style="fill:rgb(2,70,100);stroke:rgb(2,70,100);stroke-width:29.17px;"/>
                    </g>
                </g>
            </g>
        </g>
    </g>
</svg>
