<?xml version="1.0" encoding="UTF-8" standalone="no"?>
<!DOCTYPE svg PUBLIC "-//W3C//DTD SVG 1.1//EN" "http://www.w3.org/Graphics/SVG/1.1/DTD/svg11.dtd">
<svg width="100%" height="100%" viewBox="0 0 259 259" version="1.1" xmlns="http://www.w3.org/2000/svg" xmlns:xlink="http://www.w3.org/1999/xlink" xml:space="preserve" xmlns:serif="http://www.serif.com/" style="fill-rule:evenodd;clip-rule:evenodd;stroke-linecap:round;stroke-linejoin:round;stroke-miterlimit:1.5;">
    <g transform="matrix(1,0,0,1,-1804.62,-715.85)">
        <g transform="matrix(5.39006,0,0,1.72574,0,0)">
            <g id="download" transform="matrix(0.589312,0,0,0.675676,321.097,-452.334)">
                <g transform="matrix(0.522251,0,0,3.58951,-26940.1,-12034.3)">
                    <path d="M51782.4,3719.52C51782.4,3714.91 51772.9,3711.16 51761.3,3711.16L51652.8,3711.16C51641.1,3711.16 51631.7,3714.91 51631.7,3719.52L51631.7,3762.53C51631.7,3767.14 51641.1,3770.89 51652.8,3770.89L51761.3,3770.89C51772.9,3770.89 51782.4,3767.14 51782.4,3762.53L51782.4,3719.52Z" style="fill:rgb(73,130,243);stroke:rgb(73,130,243);stroke-width:2.62px;"/>
                </g>
                <g id="download1" serif:id="download" transform="matrix(0.263544,0,0,0.718657,-13651.2,-1942.91)">
                    <g transform="matrix(6.28935,0,0,6.43979,52138,4631.16)">
                        <path d="M0,0.426C0.399,-0.699 0.627,-1.904 0.627,-3.166C0.627,-9.113 -4.193,-13.933 -10.141,-13.933C-15.073,-13.933 -19.221,-10.612 -20.496,-6.088C-21.424,-6.673 -22.52,-7.017 -23.697,-7.017C-27.019,-7.017 -29.711,-4.325 -29.711,-1.005C-29.711,-0.664 -29.676,-0.333 -29.621,-0.008C-32.907,0.707 -35.369,3.629 -35.369,7.13C-35.369,11.167 -32.097,14.273 -28.061,14.273C-27.715,14.273 -27.377,14.24 -27.045,14.195L-3.926,14.195C-3.593,14.24 -3.255,14.273 -2.909,14.273C1.127,14.273 4.4,11.167 4.4,7.13C4.4,4.128 2.589,1.551 0,0.426" style="fill:white;"/>
                    </g>
                    <g transform="matrix(3.39722e-17,0.554818,-1.22308,7.4891e-17,57376.3,-24194.3)">
                        <path d="M51956.8,4377.89L51956.8,4347.15L52064.2,4347.15L52064.2,4318.62L52160.9,4362.52L52064.2,4406.42L52064.2,4377.89L51956.8,4377.89Z" style="fill:white;stroke:rgb(73,130,243);stroke-width:15.72px;"/>
                    </g>
                </g>
            </g>
        </g>
    </g>
</svg>
