<?xml version="1.0" encoding="UTF-8" standalone="no"?>
<!DOCTYPE svg PUBLIC "-//W3C//DTD SVG 1.1//EN" "http://www.w3.org/Graphics/SVG/1.1/DTD/svg11.dtd">
<svg width="100%" height="100%" viewBox="0 0 1100 250" version="1.1" xmlns="http://www.w3.org/2000/svg" xmlns:xlink="http://www.w3.org/1999/xlink" xml:space="preserve" xmlns:serif="http://www.serif.com/" style="fill-rule:evenodd;clip-rule:evenodd;stroke-linecap:round;stroke-linejoin:round;stroke-miterlimit:1.5;">
    <g transform="matrix(1,0,0,1,-532.803,-3846.89)">
        <g transform="matrix(5.94133,0,0,1.88002,0,0)">
            <g transform="matrix(0.97445,0,0,0.917935,65.0567,1495.9)">
                <g transform="matrix(0.169184,0,0,0.452248,0.518085,242.53)">
                    <rect x="146.28" y="789.301" width="1123.03" height="320.323" style="fill:none;"/>
                </g>
                <g transform="matrix(0.118094,0,0,0.396183,-421.329,-814.361)">
                    <g transform="matrix(170.638,0,0,170.638,4291.39,3728.83)">
                        <path d="M0.594,-0.325C0.594,-0.267 0.586,-0.218 0.571,-0.177C0.556,-0.135 0.534,-0.102 0.506,-0.076C0.478,-0.05 0.443,-0.031 0.403,-0.018C0.362,-0.006 0.314,-0 0.258,-0L0.107,-0C0.096,-0 0.087,-0.003 0.08,-0.01C0.073,-0.016 0.069,-0.026 0.069,-0.041L0.069,-0.591C0.069,-0.606 0.073,-0.616 0.08,-0.622C0.087,-0.629 0.096,-0.632 0.107,-0.632L0.269,-0.632C0.325,-0.632 0.373,-0.625 0.412,-0.612C0.452,-0.599 0.485,-0.579 0.511,-0.553C0.538,-0.528 0.559,-0.496 0.573,-0.458C0.587,-0.419 0.594,-0.375 0.594,-0.325ZM0.461,-0.321C0.461,-0.351 0.457,-0.379 0.45,-0.404C0.443,-0.43 0.432,-0.452 0.417,-0.471C0.401,-0.49 0.381,-0.505 0.357,-0.515C0.333,-0.526 0.301,-0.531 0.262,-0.531L0.197,-0.531L0.197,-0.102L0.264,-0.102C0.299,-0.102 0.328,-0.106 0.353,-0.115C0.377,-0.124 0.397,-0.138 0.413,-0.156C0.429,-0.175 0.441,-0.198 0.449,-0.225C0.457,-0.252 0.461,-0.284 0.461,-0.321Z" style="fill:rgb(73,130,243);fill-rule:nonzero;"/>
                    </g>
                    <g transform="matrix(170.638,0,0,170.638,4398.95,3728.83)">
                        <path d="M0.433,-0.015C0.433,-0.011 0.431,-0.007 0.428,-0.004C0.424,-0.002 0.419,0 0.412,0.001C0.405,0.002 0.395,0.003 0.381,0.003C0.367,0.003 0.356,0.002 0.349,0.001C0.343,0 0.338,-0.002 0.335,-0.004C0.332,-0.007 0.331,-0.011 0.331,-0.015L0.331,-0.05C0.313,-0.031 0.293,-0.016 0.27,-0.005C0.247,0.006 0.221,0.011 0.193,0.011C0.17,0.011 0.149,0.008 0.13,0.002C0.11,-0.004 0.094,-0.013 0.079,-0.025C0.065,-0.037 0.054,-0.051 0.046,-0.069C0.039,-0.086 0.035,-0.107 0.035,-0.13C0.035,-0.156 0.04,-0.178 0.05,-0.197C0.059,-0.215 0.074,-0.231 0.094,-0.243C0.114,-0.255 0.138,-0.264 0.167,-0.27C0.197,-0.276 0.231,-0.279 0.27,-0.279L0.312,-0.279L0.312,-0.305C0.312,-0.319 0.311,-0.331 0.308,-0.341C0.305,-0.351 0.301,-0.36 0.294,-0.367C0.288,-0.374 0.279,-0.379 0.269,-0.382C0.258,-0.385 0.245,-0.387 0.229,-0.387C0.209,-0.387 0.191,-0.384 0.175,-0.38C0.158,-0.375 0.144,-0.37 0.132,-0.365C0.119,-0.359 0.109,-0.354 0.101,-0.35C0.093,-0.345 0.086,-0.343 0.081,-0.343C0.077,-0.343 0.074,-0.344 0.071,-0.346C0.068,-0.348 0.066,-0.352 0.064,-0.356C0.062,-0.36 0.061,-0.365 0.06,-0.372C0.059,-0.378 0.059,-0.385 0.059,-0.392C0.059,-0.402 0.059,-0.41 0.061,-0.416C0.063,-0.422 0.066,-0.427 0.07,-0.432C0.075,-0.437 0.083,-0.442 0.094,-0.448C0.106,-0.453 0.119,-0.458 0.134,-0.463C0.15,-0.468 0.166,-0.472 0.184,-0.475C0.202,-0.478 0.221,-0.48 0.24,-0.48C0.274,-0.48 0.304,-0.477 0.328,-0.47C0.352,-0.463 0.372,-0.453 0.388,-0.439C0.403,-0.425 0.415,-0.408 0.422,-0.386C0.429,-0.364 0.433,-0.338 0.433,-0.308L0.433,-0.015ZM0.312,-0.202L0.265,-0.202C0.245,-0.202 0.228,-0.2 0.214,-0.197C0.2,-0.194 0.189,-0.19 0.18,-0.184C0.171,-0.178 0.165,-0.171 0.161,-0.163C0.157,-0.155 0.155,-0.145 0.155,-0.134C0.155,-0.116 0.161,-0.102 0.172,-0.091C0.184,-0.081 0.2,-0.076 0.22,-0.076C0.237,-0.076 0.253,-0.08 0.268,-0.089C0.282,-0.098 0.297,-0.111 0.312,-0.127L0.312,-0.202Z" style="fill:rgb(73,130,243);fill-rule:nonzero;"/>
                    </g>
                    <g transform="matrix(170.638,0,0,170.638,4481.61,3728.83)">
                        <path d="M0.319,-0.06C0.319,-0.045 0.318,-0.034 0.317,-0.027C0.315,-0.019 0.313,-0.014 0.31,-0.01C0.307,-0.007 0.302,-0.005 0.297,-0.002C0.291,0 0.284,0.002 0.277,0.004C0.269,0.006 0.261,0.007 0.252,0.008C0.243,0.009 0.234,0.01 0.225,0.01C0.2,0.01 0.179,0.007 0.161,0C0.143,-0.006 0.128,-0.015 0.117,-0.028C0.105,-0.041 0.096,-0.057 0.091,-0.077C0.085,-0.096 0.083,-0.119 0.083,-0.146L0.083,-0.369L0.03,-0.369C0.024,-0.369 0.019,-0.373 0.016,-0.381C0.013,-0.388 0.011,-0.401 0.011,-0.419C0.011,-0.428 0.012,-0.436 0.012,-0.443C0.013,-0.449 0.014,-0.455 0.016,-0.458C0.018,-0.462 0.02,-0.465 0.022,-0.466C0.025,-0.468 0.028,-0.469 0.031,-0.469L0.083,-0.469L0.083,-0.566C0.083,-0.569 0.083,-0.572 0.085,-0.575C0.087,-0.577 0.09,-0.58 0.095,-0.581C0.1,-0.583 0.106,-0.584 0.114,-0.585C0.122,-0.586 0.132,-0.586 0.144,-0.586C0.156,-0.586 0.166,-0.586 0.174,-0.585C0.182,-0.584 0.188,-0.583 0.192,-0.581C0.197,-0.58 0.2,-0.577 0.202,-0.575C0.204,-0.572 0.205,-0.569 0.205,-0.566L0.205,-0.469L0.3,-0.469C0.303,-0.469 0.306,-0.468 0.308,-0.466C0.311,-0.465 0.313,-0.462 0.314,-0.458C0.316,-0.455 0.317,-0.449 0.318,-0.443C0.319,-0.436 0.319,-0.428 0.319,-0.419C0.319,-0.401 0.318,-0.388 0.314,-0.381C0.311,-0.373 0.306,-0.369 0.3,-0.369L0.205,-0.369L0.205,-0.165C0.205,-0.141 0.209,-0.123 0.216,-0.111C0.224,-0.099 0.237,-0.093 0.256,-0.093C0.263,-0.093 0.269,-0.094 0.274,-0.095C0.279,-0.096 0.284,-0.097 0.288,-0.099C0.292,-0.1 0.295,-0.102 0.298,-0.103C0.301,-0.104 0.303,-0.104 0.306,-0.104C0.308,-0.104 0.309,-0.104 0.311,-0.103C0.313,-0.102 0.314,-0.099 0.315,-0.096C0.316,-0.093 0.317,-0.088 0.318,-0.082C0.319,-0.076 0.319,-0.069 0.319,-0.06Z" style="fill:rgb(73,130,243);fill-rule:nonzero;"/>
                    </g>
                    <g transform="matrix(170.638,0,0,170.638,4539.1,3728.83)">
                        <path d="M0.433,-0.015C0.433,-0.011 0.431,-0.007 0.428,-0.004C0.424,-0.002 0.419,0 0.412,0.001C0.405,0.002 0.395,0.003 0.381,0.003C0.367,0.003 0.356,0.002 0.349,0.001C0.343,0 0.338,-0.002 0.335,-0.004C0.332,-0.007 0.331,-0.011 0.331,-0.015L0.331,-0.05C0.313,-0.031 0.293,-0.016 0.27,-0.005C0.247,0.006 0.221,0.011 0.193,0.011C0.17,0.011 0.149,0.008 0.13,0.002C0.11,-0.004 0.094,-0.013 0.079,-0.025C0.065,-0.037 0.054,-0.051 0.046,-0.069C0.039,-0.086 0.035,-0.107 0.035,-0.13C0.035,-0.156 0.04,-0.178 0.05,-0.197C0.059,-0.215 0.074,-0.231 0.094,-0.243C0.114,-0.255 0.138,-0.264 0.167,-0.27C0.197,-0.276 0.231,-0.279 0.27,-0.279L0.312,-0.279L0.312,-0.305C0.312,-0.319 0.311,-0.331 0.308,-0.341C0.305,-0.351 0.301,-0.36 0.294,-0.367C0.288,-0.374 0.279,-0.379 0.269,-0.382C0.258,-0.385 0.245,-0.387 0.229,-0.387C0.209,-0.387 0.191,-0.384 0.175,-0.38C0.158,-0.375 0.144,-0.37 0.132,-0.365C0.119,-0.359 0.109,-0.354 0.101,-0.35C0.093,-0.345 0.086,-0.343 0.081,-0.343C0.077,-0.343 0.074,-0.344 0.071,-0.346C0.068,-0.348 0.066,-0.352 0.064,-0.356C0.062,-0.36 0.061,-0.365 0.06,-0.372C0.059,-0.378 0.059,-0.385 0.059,-0.392C0.059,-0.402 0.059,-0.41 0.061,-0.416C0.063,-0.422 0.066,-0.427 0.07,-0.432C0.075,-0.437 0.083,-0.442 0.094,-0.448C0.106,-0.453 0.119,-0.458 0.134,-0.463C0.15,-0.468 0.166,-0.472 0.184,-0.475C0.202,-0.478 0.221,-0.48 0.24,-0.48C0.274,-0.48 0.304,-0.477 0.328,-0.47C0.352,-0.463 0.372,-0.453 0.388,-0.439C0.403,-0.425 0.415,-0.408 0.422,-0.386C0.429,-0.364 0.433,-0.338 0.433,-0.308L0.433,-0.015ZM0.312,-0.202L0.265,-0.202C0.245,-0.202 0.228,-0.2 0.214,-0.197C0.2,-0.194 0.189,-0.19 0.18,-0.184C0.171,-0.178 0.165,-0.171 0.161,-0.163C0.157,-0.155 0.155,-0.145 0.155,-0.134C0.155,-0.116 0.161,-0.102 0.172,-0.091C0.184,-0.081 0.2,-0.076 0.22,-0.076C0.237,-0.076 0.253,-0.08 0.268,-0.089C0.282,-0.098 0.297,-0.111 0.312,-0.127L0.312,-0.202Z" style="fill:rgb(73,130,243);fill-rule:nonzero;"/>
                    </g>
                </g>
                <g transform="matrix(0.118094,0,0,0.396183,-421.329,-760.713)">
                    <g transform="matrix(170.638,0,0,170.638,4291.39,3728.83)">
                        <path d="M0.586,-0.048C0.59,-0.036 0.593,-0.027 0.594,-0.02C0.595,-0.013 0.593,-0.008 0.59,-0.005C0.586,-0.001 0.58,0.001 0.571,0.002C0.562,0.003 0.549,0.003 0.533,0.003C0.517,0.003 0.504,0.003 0.494,0.002C0.485,0.002 0.478,0.001 0.473,-0.001C0.468,-0.002 0.465,-0.004 0.463,-0.007C0.461,-0.009 0.459,-0.013 0.458,-0.017L0.416,-0.144L0.178,-0.144L0.138,-0.021C0.137,-0.016 0.135,-0.012 0.133,-0.009C0.131,-0.006 0.128,-0.003 0.123,-0.002C0.118,0 0.111,0.001 0.103,0.002C0.094,0.003 0.083,0.003 0.069,0.003C0.054,0.003 0.042,0.002 0.034,0.001C0.025,0 0.019,-0.002 0.016,-0.006C0.013,-0.009 0.012,-0.015 0.013,-0.021C0.014,-0.028 0.016,-0.037 0.02,-0.049L0.215,-0.609C0.217,-0.615 0.219,-0.619 0.222,-0.623C0.224,-0.626 0.228,-0.629 0.234,-0.631C0.24,-0.632 0.248,-0.634 0.258,-0.634C0.268,-0.635 0.281,-0.635 0.298,-0.635C0.317,-0.635 0.332,-0.635 0.344,-0.634C0.355,-0.634 0.364,-0.632 0.37,-0.631C0.377,-0.629 0.381,-0.626 0.384,-0.623C0.387,-0.619 0.389,-0.614 0.391,-0.608L0.586,-0.048ZM0.296,-0.511L0.296,-0.511L0.207,-0.243L0.386,-0.243L0.296,-0.511Z" style="fill:rgb(73,130,243);fill-rule:nonzero;"/>
                    </g>
                    <g transform="matrix(170.638,0,0,170.638,4394.79,3728.83)">
                        <path d="M0.391,-0.086C0.391,-0.077 0.391,-0.07 0.39,-0.065C0.39,-0.059 0.389,-0.054 0.388,-0.05C0.388,-0.046 0.387,-0.043 0.385,-0.041C0.384,-0.038 0.382,-0.035 0.378,-0.031C0.374,-0.028 0.367,-0.023 0.358,-0.018C0.348,-0.012 0.338,-0.008 0.326,-0.003C0.314,0.001 0.301,0.004 0.286,0.007C0.272,0.009 0.258,0.011 0.243,0.011C0.209,0.011 0.179,0.006 0.154,-0.005C0.128,-0.015 0.106,-0.031 0.088,-0.051C0.071,-0.071 0.058,-0.096 0.049,-0.125C0.04,-0.155 0.035,-0.188 0.035,-0.226C0.035,-0.27 0.041,-0.307 0.052,-0.339C0.062,-0.371 0.078,-0.397 0.097,-0.418C0.117,-0.439 0.14,-0.454 0.167,-0.464C0.193,-0.474 0.222,-0.479 0.254,-0.479C0.267,-0.479 0.28,-0.478 0.293,-0.476C0.305,-0.474 0.317,-0.471 0.328,-0.467C0.339,-0.463 0.349,-0.458 0.357,-0.454C0.366,-0.449 0.372,-0.444 0.375,-0.441C0.379,-0.437 0.382,-0.434 0.383,-0.432C0.385,-0.429 0.386,-0.426 0.386,-0.422C0.387,-0.418 0.388,-0.414 0.388,-0.408C0.389,-0.402 0.389,-0.395 0.389,-0.387C0.389,-0.368 0.388,-0.355 0.384,-0.347C0.381,-0.34 0.377,-0.336 0.372,-0.336C0.366,-0.336 0.36,-0.338 0.354,-0.343C0.348,-0.347 0.34,-0.352 0.332,-0.358C0.324,-0.363 0.313,-0.368 0.302,-0.373C0.29,-0.378 0.276,-0.38 0.26,-0.38C0.228,-0.38 0.203,-0.368 0.187,-0.343C0.17,-0.318 0.161,-0.282 0.161,-0.235C0.161,-0.211 0.163,-0.191 0.167,-0.173C0.172,-0.155 0.178,-0.14 0.186,-0.128C0.195,-0.116 0.205,-0.107 0.218,-0.101C0.23,-0.095 0.245,-0.092 0.261,-0.092C0.278,-0.092 0.293,-0.094 0.305,-0.099C0.317,-0.104 0.328,-0.11 0.337,-0.116C0.346,-0.122 0.354,-0.128 0.36,-0.133C0.366,-0.138 0.371,-0.141 0.375,-0.141C0.378,-0.141 0.381,-0.14 0.383,-0.138C0.385,-0.137 0.386,-0.134 0.387,-0.129C0.389,-0.125 0.389,-0.119 0.39,-0.112C0.391,-0.105 0.391,-0.097 0.391,-0.086Z" style="fill:rgb(73,130,243);fill-rule:nonzero;"/>
                    </g>
                    <g transform="matrix(170.638,0,0,170.638,4466.19,3728.83)">
                        <path d="M0.475,0.156C0.475,0.16 0.474,0.162 0.472,0.165C0.47,0.168 0.466,0.17 0.462,0.172C0.457,0.173 0.451,0.175 0.443,0.176C0.436,0.177 0.426,0.177 0.414,0.177C0.402,0.177 0.392,0.177 0.384,0.176C0.376,0.175 0.37,0.173 0.365,0.172C0.36,0.17 0.357,0.168 0.355,0.165C0.353,0.162 0.353,0.16 0.353,0.156L0.353,-0.051C0.341,-0.04 0.329,-0.031 0.318,-0.023C0.307,-0.015 0.296,-0.008 0.285,-0.003C0.274,0.002 0.263,0.006 0.251,0.008C0.239,0.01 0.227,0.011 0.214,0.011C0.182,0.011 0.155,0.005 0.132,-0.008C0.11,-0.021 0.092,-0.038 0.077,-0.06C0.063,-0.082 0.053,-0.107 0.046,-0.136C0.04,-0.166 0.037,-0.196 0.037,-0.229C0.037,-0.267 0.041,-0.302 0.049,-0.333C0.058,-0.364 0.07,-0.39 0.086,-0.412C0.103,-0.434 0.123,-0.451 0.146,-0.462C0.17,-0.474 0.198,-0.48 0.229,-0.48C0.241,-0.48 0.253,-0.479 0.264,-0.476C0.275,-0.474 0.286,-0.47 0.297,-0.464C0.308,-0.458 0.319,-0.45 0.331,-0.44C0.343,-0.431 0.356,-0.419 0.371,-0.405L0.371,-0.452C0.371,-0.455 0.372,-0.458 0.373,-0.461C0.375,-0.463 0.378,-0.465 0.382,-0.467C0.386,-0.468 0.391,-0.47 0.398,-0.47C0.404,-0.471 0.413,-0.472 0.423,-0.472C0.433,-0.472 0.441,-0.471 0.448,-0.47C0.455,-0.47 0.46,-0.468 0.464,-0.467C0.468,-0.465 0.471,-0.463 0.472,-0.461C0.474,-0.458 0.475,-0.455 0.475,-0.452L0.475,0.156ZM0.353,-0.308C0.335,-0.33 0.318,-0.347 0.302,-0.358C0.286,-0.37 0.269,-0.376 0.251,-0.376C0.236,-0.376 0.222,-0.372 0.21,-0.364C0.199,-0.356 0.189,-0.345 0.182,-0.332C0.175,-0.319 0.17,-0.304 0.167,-0.287C0.163,-0.271 0.162,-0.254 0.162,-0.237C0.162,-0.219 0.163,-0.201 0.166,-0.183C0.169,-0.166 0.174,-0.151 0.18,-0.137C0.187,-0.124 0.196,-0.113 0.207,-0.105C0.218,-0.097 0.232,-0.093 0.249,-0.093C0.257,-0.093 0.266,-0.094 0.274,-0.096C0.282,-0.099 0.29,-0.103 0.298,-0.108C0.306,-0.114 0.315,-0.121 0.324,-0.13C0.333,-0.139 0.342,-0.15 0.353,-0.163L0.353,-0.308Z" style="fill:rgb(73,130,243);fill-rule:nonzero;"/>
                    </g>
                    <g transform="matrix(170.638,0,0,170.638,4557.76,3728.83)">
                        <path d="M0.475,-0.017C0.475,-0.013 0.474,-0.01 0.472,-0.008C0.471,-0.006 0.468,-0.004 0.464,-0.002C0.46,-0 0.454,0.001 0.448,0.002C0.441,0.003 0.432,0.003 0.422,0.003C0.412,0.003 0.403,0.003 0.396,0.002C0.39,0.001 0.384,-0 0.38,-0.002C0.376,-0.004 0.374,-0.006 0.372,-0.008C0.37,-0.01 0.37,-0.013 0.37,-0.017L0.37,-0.067C0.346,-0.041 0.321,-0.021 0.296,-0.008C0.271,0.005 0.245,0.011 0.219,0.011C0.189,0.011 0.164,0.006 0.143,-0.003C0.123,-0.013 0.107,-0.027 0.094,-0.043C0.081,-0.06 0.073,-0.08 0.067,-0.102C0.062,-0.125 0.059,-0.152 0.059,-0.186L0.059,-0.452C0.059,-0.455 0.06,-0.458 0.062,-0.461C0.064,-0.463 0.067,-0.465 0.072,-0.467C0.076,-0.468 0.083,-0.47 0.091,-0.47C0.099,-0.471 0.108,-0.472 0.12,-0.472C0.132,-0.472 0.142,-0.471 0.15,-0.47C0.158,-0.47 0.164,-0.468 0.169,-0.467C0.173,-0.465 0.177,-0.463 0.179,-0.461C0.181,-0.458 0.182,-0.455 0.182,-0.452L0.182,-0.206C0.182,-0.183 0.183,-0.166 0.186,-0.154C0.189,-0.142 0.193,-0.131 0.199,-0.123C0.205,-0.114 0.213,-0.108 0.222,-0.103C0.232,-0.098 0.243,-0.096 0.255,-0.096C0.271,-0.096 0.286,-0.101 0.302,-0.113C0.318,-0.124 0.335,-0.141 0.353,-0.163L0.353,-0.452C0.353,-0.455 0.353,-0.458 0.355,-0.461C0.357,-0.463 0.36,-0.465 0.365,-0.467C0.37,-0.468 0.376,-0.47 0.384,-0.47C0.392,-0.471 0.402,-0.472 0.414,-0.472C0.426,-0.472 0.436,-0.471 0.443,-0.47C0.451,-0.47 0.457,-0.468 0.462,-0.467C0.466,-0.465 0.47,-0.463 0.472,-0.461C0.474,-0.458 0.475,-0.455 0.475,-0.452L0.475,-0.017Z" style="fill:rgb(73,130,243);fill-rule:nonzero;"/>
                    </g>
                    <g transform="matrix(170.638,0,0,170.638,4649.33,3728.83)">
                        <path d="M0.185,-0.017C0.185,-0.013 0.184,-0.01 0.182,-0.008C0.18,-0.006 0.176,-0.004 0.172,-0.002C0.167,-0 0.161,0.001 0.153,0.002C0.145,0.003 0.135,0.003 0.123,0.003C0.111,0.003 0.101,0.003 0.093,0.002C0.085,0.001 0.079,-0 0.074,-0.002C0.07,-0.004 0.066,-0.006 0.064,-0.008C0.063,-0.01 0.062,-0.013 0.062,-0.017L0.062,-0.451C0.062,-0.454 0.063,-0.457 0.064,-0.46C0.066,-0.462 0.07,-0.464 0.074,-0.466C0.079,-0.468 0.085,-0.469 0.093,-0.47C0.101,-0.471 0.111,-0.472 0.123,-0.472C0.135,-0.472 0.145,-0.471 0.153,-0.47C0.161,-0.469 0.167,-0.468 0.172,-0.466C0.176,-0.464 0.18,-0.462 0.182,-0.46C0.184,-0.457 0.185,-0.454 0.185,-0.451L0.185,-0.017ZM0.194,-0.6C0.194,-0.575 0.189,-0.558 0.179,-0.548C0.169,-0.539 0.15,-0.534 0.123,-0.534C0.095,-0.534 0.076,-0.539 0.067,-0.548C0.057,-0.557 0.052,-0.573 0.052,-0.597C0.052,-0.622 0.057,-0.639 0.067,-0.649C0.077,-0.658 0.096,-0.663 0.124,-0.663C0.151,-0.663 0.169,-0.658 0.179,-0.649C0.189,-0.64 0.194,-0.623 0.194,-0.6Z" style="fill:rgb(73,130,243);fill-rule:nonzero;"/>
                    </g>
                    <g transform="matrix(170.638,0,0,170.638,4691.24,3728.83)">
                        <path d="M0.368,-0.14C0.368,-0.115 0.364,-0.093 0.354,-0.074C0.345,-0.055 0.332,-0.04 0.315,-0.027C0.298,-0.014 0.278,-0.005 0.255,0.002C0.232,0.008 0.207,0.011 0.18,0.011C0.163,0.011 0.148,0.01 0.133,0.008C0.118,0.005 0.105,0.002 0.093,-0.002C0.082,-0.005 0.072,-0.009 0.064,-0.013C0.056,-0.017 0.05,-0.021 0.047,-0.024C0.043,-0.028 0.041,-0.033 0.039,-0.04C0.037,-0.048 0.036,-0.058 0.036,-0.073C0.036,-0.082 0.036,-0.09 0.037,-0.095C0.037,-0.101 0.038,-0.106 0.04,-0.109C0.041,-0.113 0.042,-0.115 0.044,-0.116C0.046,-0.117 0.049,-0.118 0.052,-0.118C0.055,-0.118 0.061,-0.116 0.068,-0.112C0.075,-0.108 0.083,-0.103 0.094,-0.098C0.104,-0.093 0.116,-0.089 0.13,-0.084C0.144,-0.08 0.16,-0.078 0.177,-0.078C0.188,-0.078 0.198,-0.079 0.207,-0.082C0.215,-0.084 0.223,-0.087 0.229,-0.091C0.236,-0.096 0.24,-0.101 0.244,-0.107C0.247,-0.114 0.249,-0.121 0.249,-0.13C0.249,-0.14 0.246,-0.148 0.24,-0.155C0.233,-0.162 0.226,-0.168 0.216,-0.173C0.206,-0.179 0.194,-0.183 0.182,-0.188C0.169,-0.193 0.156,-0.198 0.143,-0.203C0.13,-0.209 0.117,-0.215 0.105,-0.222C0.092,-0.229 0.081,-0.238 0.071,-0.249C0.061,-0.259 0.053,-0.271 0.047,-0.286C0.041,-0.301 0.038,-0.318 0.038,-0.339C0.038,-0.36 0.042,-0.379 0.05,-0.396C0.058,-0.414 0.07,-0.429 0.085,-0.441C0.101,-0.453 0.119,-0.463 0.141,-0.47C0.163,-0.477 0.188,-0.48 0.215,-0.48C0.229,-0.48 0.242,-0.479 0.255,-0.477C0.268,-0.475 0.28,-0.473 0.29,-0.47C0.3,-0.467 0.309,-0.464 0.316,-0.46C0.324,-0.457 0.329,-0.454 0.332,-0.451C0.335,-0.449 0.337,-0.447 0.338,-0.444C0.34,-0.442 0.341,-0.439 0.341,-0.435C0.342,-0.432 0.343,-0.428 0.343,-0.423C0.344,-0.418 0.344,-0.411 0.344,-0.404C0.344,-0.395 0.344,-0.388 0.343,-0.382C0.343,-0.377 0.342,-0.372 0.341,-0.369C0.339,-0.366 0.338,-0.364 0.336,-0.363C0.334,-0.361 0.332,-0.361 0.329,-0.361C0.326,-0.361 0.322,-0.363 0.315,-0.366C0.309,-0.369 0.302,-0.373 0.292,-0.377C0.283,-0.381 0.272,-0.385 0.26,-0.388C0.248,-0.391 0.234,-0.393 0.218,-0.393C0.207,-0.393 0.198,-0.392 0.189,-0.39C0.181,-0.387 0.175,-0.384 0.169,-0.38C0.164,-0.376 0.16,-0.371 0.158,-0.365C0.155,-0.359 0.154,-0.353 0.154,-0.347C0.154,-0.337 0.157,-0.328 0.163,-0.321C0.169,-0.314 0.177,-0.308 0.188,-0.303C0.198,-0.298 0.209,-0.293 0.222,-0.289C0.235,-0.284 0.248,-0.279 0.261,-0.274C0.274,-0.268 0.287,-0.262 0.3,-0.255C0.313,-0.248 0.324,-0.239 0.334,-0.229C0.345,-0.218 0.353,-0.206 0.359,-0.191C0.365,-0.177 0.368,-0.16 0.368,-0.14Z" style="fill:rgb(73,130,243);fill-rule:nonzero;"/>
                    </g>
                    <g transform="matrix(170.638,0,0,170.638,4759.31,3728.83)">
                        <path d="M0.185,-0.017C0.185,-0.013 0.184,-0.01 0.182,-0.008C0.18,-0.006 0.176,-0.004 0.172,-0.002C0.167,-0 0.161,0.001 0.153,0.002C0.145,0.003 0.135,0.003 0.123,0.003C0.111,0.003 0.101,0.003 0.093,0.002C0.085,0.001 0.079,-0 0.074,-0.002C0.07,-0.004 0.066,-0.006 0.064,-0.008C0.063,-0.01 0.062,-0.013 0.062,-0.017L0.062,-0.451C0.062,-0.454 0.063,-0.457 0.064,-0.46C0.066,-0.462 0.07,-0.464 0.074,-0.466C0.079,-0.468 0.085,-0.469 0.093,-0.47C0.101,-0.471 0.111,-0.472 0.123,-0.472C0.135,-0.472 0.145,-0.471 0.153,-0.47C0.161,-0.469 0.167,-0.468 0.172,-0.466C0.176,-0.464 0.18,-0.462 0.182,-0.46C0.184,-0.457 0.185,-0.454 0.185,-0.451L0.185,-0.017ZM0.194,-0.6C0.194,-0.575 0.189,-0.558 0.179,-0.548C0.169,-0.539 0.15,-0.534 0.123,-0.534C0.095,-0.534 0.076,-0.539 0.067,-0.548C0.057,-0.557 0.052,-0.573 0.052,-0.597C0.052,-0.622 0.057,-0.639 0.067,-0.649C0.077,-0.658 0.096,-0.663 0.124,-0.663C0.151,-0.663 0.169,-0.658 0.179,-0.649C0.189,-0.64 0.194,-0.623 0.194,-0.6Z" style="fill:rgb(73,130,243);fill-rule:nonzero;"/>
                    </g>
                    <g transform="matrix(170.638,0,0,170.638,4801.22,3728.83)">
                        <path d="M0.487,-0.469C0.5,-0.469 0.51,-0.466 0.515,-0.46C0.521,-0.454 0.523,-0.446 0.523,-0.435L0.523,-0.017C0.523,-0.013 0.522,-0.01 0.521,-0.008C0.519,-0.006 0.515,-0.004 0.511,-0.002C0.506,-0 0.5,0.001 0.492,0.002C0.484,0.003 0.474,0.003 0.462,0.003C0.45,0.003 0.44,0.003 0.432,0.002C0.424,0.001 0.418,-0 0.414,-0.002C0.409,-0.004 0.406,-0.006 0.404,-0.008C0.402,-0.01 0.401,-0.013 0.401,-0.017L0.401,-0.369L0.205,-0.369L0.205,-0.165C0.205,-0.141 0.209,-0.123 0.216,-0.111C0.224,-0.099 0.237,-0.093 0.256,-0.093C0.263,-0.093 0.269,-0.094 0.274,-0.095C0.279,-0.096 0.284,-0.097 0.288,-0.099C0.292,-0.1 0.295,-0.102 0.298,-0.103C0.301,-0.104 0.303,-0.104 0.306,-0.104C0.308,-0.104 0.309,-0.104 0.311,-0.103C0.313,-0.102 0.314,-0.099 0.315,-0.096C0.316,-0.093 0.317,-0.088 0.318,-0.082C0.319,-0.076 0.319,-0.069 0.319,-0.06C0.319,-0.045 0.319,-0.034 0.317,-0.027C0.315,-0.02 0.313,-0.014 0.31,-0.011C0.307,-0.008 0.303,-0.005 0.297,-0.002C0.291,0 0.284,0.002 0.277,0.004C0.269,0.006 0.261,0.007 0.252,0.008C0.243,0.009 0.234,0.01 0.225,0.01C0.2,0.01 0.179,0.007 0.161,0C0.143,-0.006 0.128,-0.015 0.117,-0.028C0.105,-0.041 0.096,-0.057 0.091,-0.077C0.085,-0.096 0.083,-0.119 0.083,-0.146L0.083,-0.369L0.03,-0.369C0.024,-0.369 0.019,-0.373 0.016,-0.381C0.013,-0.388 0.011,-0.401 0.011,-0.419C0.011,-0.428 0.012,-0.436 0.012,-0.443C0.013,-0.449 0.014,-0.455 0.016,-0.458C0.018,-0.462 0.02,-0.465 0.022,-0.466C0.025,-0.468 0.028,-0.469 0.031,-0.469L0.083,-0.469L0.083,-0.566C0.083,-0.569 0.083,-0.572 0.085,-0.575C0.087,-0.577 0.09,-0.58 0.095,-0.581C0.1,-0.583 0.106,-0.584 0.114,-0.585C0.122,-0.586 0.132,-0.586 0.144,-0.586C0.156,-0.586 0.166,-0.586 0.174,-0.585C0.182,-0.584 0.188,-0.583 0.192,-0.581C0.197,-0.58 0.2,-0.577 0.202,-0.575C0.204,-0.572 0.205,-0.569 0.205,-0.566L0.205,-0.469L0.487,-0.469ZM0.533,-0.6C0.533,-0.575 0.528,-0.558 0.518,-0.548C0.508,-0.539 0.489,-0.534 0.462,-0.534C0.434,-0.534 0.416,-0.539 0.406,-0.548C0.396,-0.557 0.392,-0.573 0.392,-0.597C0.392,-0.622 0.397,-0.639 0.406,-0.649C0.416,-0.658 0.435,-0.663 0.463,-0.663C0.49,-0.663 0.509,-0.658 0.519,-0.649C0.528,-0.64 0.533,-0.623 0.533,-0.6Z" style="fill:rgb(73,130,243);fill-rule:nonzero;"/>
                    </g>
                    <g transform="matrix(170.638,0,0,170.638,4901.12,3728.83)">
                        <path d="M0.502,-0.239C0.502,-0.202 0.497,-0.168 0.487,-0.137C0.478,-0.107 0.463,-0.08 0.443,-0.058C0.423,-0.036 0.398,-0.019 0.368,-0.007C0.338,0.005 0.303,0.011 0.263,0.011C0.224,0.011 0.191,0.006 0.162,-0.005C0.133,-0.016 0.11,-0.031 0.091,-0.052C0.072,-0.072 0.058,-0.097 0.049,-0.127C0.04,-0.157 0.035,-0.192 0.035,-0.23C0.035,-0.267 0.04,-0.301 0.05,-0.332C0.06,-0.363 0.075,-0.389 0.095,-0.411C0.115,-0.433 0.139,-0.45 0.169,-0.462C0.199,-0.474 0.234,-0.48 0.274,-0.48C0.313,-0.48 0.347,-0.475 0.375,-0.464C0.404,-0.454 0.428,-0.438 0.447,-0.417C0.465,-0.397 0.479,-0.372 0.488,-0.342C0.497,-0.312 0.502,-0.278 0.502,-0.239ZM0.375,-0.234C0.375,-0.255 0.374,-0.275 0.37,-0.293C0.367,-0.311 0.361,-0.327 0.353,-0.34C0.345,-0.354 0.334,-0.364 0.321,-0.372C0.307,-0.379 0.29,-0.383 0.27,-0.383C0.251,-0.383 0.235,-0.379 0.222,-0.373C0.208,-0.366 0.197,-0.356 0.188,-0.344C0.179,-0.331 0.173,-0.315 0.168,-0.297C0.164,-0.279 0.162,-0.258 0.162,-0.235C0.162,-0.214 0.163,-0.194 0.167,-0.176C0.171,-0.158 0.176,-0.142 0.184,-0.129C0.192,-0.116 0.203,-0.105 0.217,-0.098C0.23,-0.091 0.247,-0.087 0.268,-0.087C0.286,-0.087 0.302,-0.09 0.316,-0.097C0.33,-0.104 0.341,-0.113 0.35,-0.126C0.358,-0.139 0.365,-0.154 0.369,-0.172C0.373,-0.19 0.375,-0.211 0.375,-0.234Z" style="fill:rgb(73,130,243);fill-rule:nonzero;"/>
                    </g>
                    <g transform="matrix(170.638,0,0,170.638,4992.86,3728.83)">
                        <path d="M0.478,-0.017C0.478,-0.013 0.477,-0.01 0.475,-0.008C0.473,-0.006 0.469,-0.004 0.465,-0.002C0.46,-0 0.454,0.001 0.446,0.002C0.438,0.003 0.428,0.003 0.417,0.003C0.404,0.003 0.394,0.003 0.386,0.002C0.378,0.001 0.372,-0 0.368,-0.002C0.363,-0.004 0.36,-0.006 0.358,-0.008C0.356,-0.01 0.355,-0.013 0.355,-0.017L0.355,-0.265C0.355,-0.286 0.353,-0.303 0.35,-0.315C0.347,-0.327 0.343,-0.337 0.337,-0.346C0.331,-0.355 0.323,-0.361 0.314,-0.366C0.305,-0.371 0.294,-0.373 0.282,-0.373C0.266,-0.373 0.25,-0.367 0.234,-0.356C0.218,-0.345 0.202,-0.328 0.185,-0.306L0.185,-0.017C0.185,-0.013 0.184,-0.01 0.182,-0.008C0.18,-0.006 0.176,-0.004 0.172,-0.002C0.167,-0 0.161,0.001 0.153,0.002C0.145,0.003 0.135,0.003 0.123,0.003C0.111,0.003 0.101,0.003 0.093,0.002C0.085,0.001 0.079,-0 0.074,-0.002C0.07,-0.004 0.066,-0.006 0.064,-0.008C0.063,-0.01 0.062,-0.013 0.062,-0.017L0.062,-0.452C0.062,-0.455 0.062,-0.458 0.064,-0.461C0.066,-0.463 0.069,-0.465 0.073,-0.467C0.077,-0.468 0.082,-0.47 0.089,-0.47C0.096,-0.471 0.104,-0.472 0.114,-0.472C0.125,-0.472 0.133,-0.471 0.14,-0.47C0.147,-0.47 0.152,-0.468 0.156,-0.467C0.16,-0.465 0.162,-0.463 0.164,-0.461C0.166,-0.458 0.167,-0.455 0.167,-0.452L0.167,-0.402C0.191,-0.428 0.215,-0.447 0.24,-0.46C0.265,-0.473 0.291,-0.48 0.318,-0.48C0.347,-0.48 0.372,-0.475 0.393,-0.465C0.413,-0.456 0.43,-0.442 0.442,-0.426C0.455,-0.409 0.464,-0.389 0.469,-0.367C0.475,-0.344 0.478,-0.317 0.478,-0.286L0.478,-0.017Z" style="fill:rgb(73,130,243);fill-rule:nonzero;"/>
                    </g>
                </g>
                <g id="download" transform="matrix(0.54865,0,0,0.675676,11.7845,-270.066)">
                    <g transform="matrix(0.522251,0,0,3.58951,-26940.1,-12034.3)">
                        <path d="M51782.4,3719.52C51782.4,3714.91 51772.9,3711.16 51761.3,3711.16L51652.8,3711.16C51641.1,3711.16 51631.7,3714.91 51631.7,3719.52L51631.7,3762.53C51631.7,3767.14 51641.1,3770.89 51652.8,3770.89L51761.3,3770.89C51772.9,3770.89 51782.4,3767.14 51782.4,3762.53L51782.4,3719.52Z" style="fill:rgb(73,130,243);"/>
                    </g>
                    <g id="download1" serif:id="download" transform="matrix(0.263544,0,0,0.718657,-13651.2,-1942.91)">
                        <g transform="matrix(6.28935,0,0,6.43979,52138,4631.16)">
                            <path d="M0,0.426C0.399,-0.699 0.627,-1.904 0.627,-3.166C0.627,-9.113 -4.193,-13.933 -10.141,-13.933C-15.073,-13.933 -19.221,-10.612 -20.496,-6.088C-21.424,-6.673 -22.52,-7.017 -23.697,-7.017C-27.019,-7.017 -29.711,-4.325 -29.711,-1.005C-29.711,-0.664 -29.676,-0.333 -29.621,-0.008C-32.907,0.707 -35.369,3.629 -35.369,7.13C-35.369,11.167 -32.097,14.273 -28.061,14.273C-27.715,14.273 -27.377,14.24 -27.045,14.195L-3.926,14.195C-3.593,14.24 -3.255,14.273 -2.909,14.273C1.127,14.273 4.4,11.167 4.4,7.13C4.4,4.128 2.589,1.551 0,0.426" style="fill:white;"/>
                        </g>
                        <g transform="matrix(3.39722e-17,0.554818,-1.22308,7.4891e-17,57376.3,-24194.3)">
                            <path d="M51956.8,4377.89L51956.8,4347.15L52064.2,4347.15L52064.2,4318.62L52160.9,4362.52L52064.2,4406.42L52064.2,4377.89L51956.8,4377.89Z" style="fill:white;stroke:rgb(73,130,243);stroke-width:15.72px;"/>
                        </g>
                    </g>
                </g>
            </g>
        </g>
    </g>
</svg>
