<?xml version="1.0" encoding="UTF-8" standalone="no"?>
<!DOCTYPE svg PUBLIC "-//W3C//DTD SVG 1.1//EN" "http://www.w3.org/Graphics/SVG/1.1/DTD/svg11.dtd">
<svg width="100%" height="100%" viewBox="0 0 250 250" version="1.1" xmlns="http://www.w3.org/2000/svg" xmlns:xlink="http://www.w3.org/1999/xlink" xml:space="preserve" xmlns:serif="http://www.serif.com/" style="fill-rule:evenodd;clip-rule:evenodd;stroke-linejoin:round;stroke-miterlimit:2;">
    <g transform="matrix(1,0,0,1,-1363.68,-334.037)">
        <g transform="matrix(5.39006,0,0,1.72574,0,0)">
            <g id="menu" transform="matrix(0.926263,0,0,2.95192,297.841,232.232)">
                <path d="M0,22.875L-28.862,22.875C-29.78,22.875 -30.525,23.619 -30.525,24.537L-30.525,34.313C-30.525,35.23 -29.78,35.975 -28.862,35.975L0,35.975C0.918,35.975 1.662,35.23 1.662,34.313L1.662,24.537C1.662,23.619 0.918,22.875 0,22.875M0,4.987L-28.862,4.987C-29.78,4.987 -30.525,5.731 -30.525,6.65L-30.525,16.225C-30.525,17.144 -29.78,17.888 -28.862,17.888L0,17.888C0.918,17.888 1.662,17.144 1.662,16.225L1.662,6.65C1.662,5.731 0.918,4.987 0,4.987M0,-13.1L-28.862,-13.1C-29.78,-13.1 -30.525,-12.355 -30.525,-11.438L-30.525,-1.662C-30.525,-0.744 -29.78,0 -28.862,0L0,0C0.918,0 1.662,-0.744 1.662,-1.662L1.662,-11.438C1.662,-12.355 0.918,-13.1 0,-13.1M-36.775,22.875L-46.75,22.875C-47.668,22.875 -48.412,23.619 -48.412,24.537L-48.412,34.313C-48.412,35.23 -47.668,35.975 -46.75,35.975L-36.775,35.975C-35.856,35.975 -35.112,35.23 -35.112,34.313L-35.112,24.537C-35.112,23.619 -35.856,22.875 -36.775,22.875M-36.775,4.987L-46.75,4.987C-47.668,4.987 -48.412,5.731 -48.412,6.65L-48.412,16.225C-48.412,17.144 -47.668,17.888 -46.75,17.888L-36.775,17.888C-35.856,17.888 -35.112,17.144 -35.112,16.225L-35.112,6.65C-35.112,5.731 -35.856,4.987 -36.775,4.987M-36.775,-13.1L-46.75,-13.1C-47.668,-13.1 -48.412,-12.355 -48.412,-11.438L-48.412,-1.662C-48.412,-0.744 -47.668,0 -46.75,0L-36.775,0C-35.856,0 -35.112,-0.744 -35.112,-1.662L-35.112,-11.438C-35.112,-12.355 -35.856,-13.1 -36.775,-13.1" style="fill:rgb(2,70,100);"/>
            </g>
        </g>
    </g>
</svg>
