<?xml version="1.0" encoding="UTF-8" standalone="no"?>
<!DOCTYPE svg PUBLIC "-//W3C//DTD SVG 1.1//EN" "http://www.w3.org/Graphics/SVG/1.1/DTD/svg11.dtd">
<svg width="100%" height="100%" viewBox="0 0 250 250" version="1.1" xmlns="http://www.w3.org/2000/svg" xmlns:xlink="http://www.w3.org/1999/xlink" xml:space="preserve" xmlns:serif="http://www.serif.com/" style="fill-rule:evenodd;clip-rule:evenodd;stroke-linejoin:round;stroke-miterlimit:2;">
    <g transform="matrix(1,0,0,1,-2988.83,-720.017)">
        <g transform="matrix(5.39006,0,0,1.72574,0,0)">
            <g id="restore" transform="matrix(2.28473,0,-1.37208e-31,19.2658,-22627.4,-1399.48)">
                <g transform="matrix(0.317198,0,0,0.117489,10030.4,64.8073)">
                    <rect x="365.901" y="250.998" width="64" height="64" style="fill:rgb(55,197,11);fill-rule:nonzero;"/>
                </g>
                <g transform="matrix(0.317198,0,0,0.117489,10030.4,64.8073)">
                    <path d="M394.09,314.998L429.901,314.998L429.901,277.206L415.679,262.983L380.313,301.22L394.09,314.998Z" style="fill:rgb(34,122,7);fill-rule:nonzero;"/>
                </g>
                <g transform="matrix(0.114191,0,8.0772e-49,0.0422962,10112.7,85.2333)">
                    <path d="M429.901,314.998L365.901,314.998L365.901,250.998L429.901,250.998L429.901,314.998Z" style="fill:rgb(55,197,11);fill-rule:nonzero;stroke:white;stroke-width:13.35px;"/>
                </g>
                <g transform="matrix(0.114191,0,-1.05411e-48,0.0422962,10109.9,86.7909)">
                    <path d="M429.901,314.998L365.901,314.998L365.901,250.998L429.901,250.998L429.901,314.998Z" style="fill:rgb(55,197,11);fill-rule:nonzero;stroke:white;stroke-width:13.35px;"/>
                </g>
            </g>
        </g>
    </g>
</svg>
