<?xml version="1.0" encoding="UTF-8" standalone="no"?>
<!DOCTYPE svg PUBLIC "-//W3C//DTD SVG 1.1//EN" "http://www.w3.org/Graphics/SVG/1.1/DTD/svg11.dtd">
<svg width="100%" height="100%" viewBox="0 0 239 242" version="1.1" xmlns="http://www.w3.org/2000/svg" xmlns:xlink="http://www.w3.org/1999/xlink" xml:space="preserve" xmlns:serif="http://www.serif.com/" style="fill-rule:evenodd;clip-rule:evenodd;stroke-linejoin:round;stroke-miterlimit:2;">
    <g transform="matrix(1,0,0,1,-1811.64,-1686.11)">
        <g transform="matrix(5.39006,0,0,1.72574,0,0)">
            <g transform="matrix(1,0,0,1,83.4299,194.001)">
                <g transform="matrix(1.82233e-17,0.929531,-0.740924,1.41701e-16,3046.62,-47210.2)">
                    <path d="M51782.4,3719.52C51782.4,3714.91 51773.1,3711.16 51761.6,3711.16L51652.5,3711.16C51641,3711.16 51631.7,3714.91 51631.7,3719.52L51631.7,3762.53C51631.7,3767.14 51641,3770.89 51652.5,3770.89L51761.6,3770.89C51773.1,3770.89 51782.4,3767.14 51782.4,3762.53L51782.4,3719.52Z" style="fill:rgb(73,130,243);"/>
                </g>
                <g transform="matrix(0.258086,0,0,0.806088,-13127.2,-2158.44)">
                    <g transform="matrix(47.9238,0,0,47.9238,51889.7,3705.15)">
                        <path d="M0.443,-0.189C0.443,-0.156 0.437,-0.127 0.425,-0.102C0.412,-0.077 0.396,-0.056 0.375,-0.039C0.353,-0.023 0.329,-0.01 0.3,-0.001C0.272,0.007 0.242,0.011 0.209,0.011C0.188,0.011 0.167,0.009 0.149,0.006C0.13,0.002 0.113,-0.002 0.099,-0.007C0.085,-0.012 0.073,-0.017 0.063,-0.023C0.054,-0.028 0.047,-0.033 0.042,-0.038C0.038,-0.042 0.035,-0.048 0.033,-0.056C0.032,-0.064 0.031,-0.075 0.031,-0.09C0.031,-0.1 0.031,-0.109 0.032,-0.116C0.032,-0.123 0.033,-0.128 0.035,-0.132C0.036,-0.137 0.038,-0.14 0.041,-0.141C0.043,-0.143 0.046,-0.144 0.049,-0.144C0.054,-0.144 0.06,-0.141 0.069,-0.136C0.077,-0.131 0.088,-0.125 0.101,-0.118C0.114,-0.112 0.129,-0.106 0.147,-0.1C0.165,-0.095 0.186,-0.092 0.21,-0.092C0.226,-0.092 0.24,-0.094 0.252,-0.098C0.264,-0.102 0.275,-0.107 0.283,-0.114C0.292,-0.121 0.299,-0.129 0.303,-0.139C0.308,-0.149 0.31,-0.16 0.31,-0.173C0.31,-0.187 0.306,-0.199 0.298,-0.21C0.291,-0.22 0.28,-0.229 0.268,-0.237C0.255,-0.245 0.241,-0.253 0.225,-0.26C0.209,-0.267 0.193,-0.274 0.176,-0.282C0.159,-0.29 0.142,-0.298 0.126,-0.308C0.111,-0.318 0.096,-0.33 0.084,-0.344C0.071,-0.358 0.061,-0.374 0.053,-0.393C0.045,-0.412 0.042,-0.435 0.042,-0.461C0.042,-0.491 0.047,-0.518 0.058,-0.541C0.07,-0.564 0.085,-0.583 0.104,-0.598C0.123,-0.613 0.145,-0.624 0.171,-0.632C0.197,-0.639 0.224,-0.643 0.253,-0.643C0.268,-0.643 0.283,-0.642 0.298,-0.64C0.313,-0.637 0.327,-0.634 0.34,-0.63C0.353,-0.626 0.365,-0.622 0.375,-0.617C0.385,-0.612 0.392,-0.608 0.395,-0.605C0.398,-0.602 0.4,-0.599 0.402,-0.597C0.403,-0.594 0.404,-0.591 0.405,-0.588C0.405,-0.584 0.406,-0.579 0.406,-0.573C0.407,-0.568 0.407,-0.561 0.407,-0.552C0.407,-0.543 0.406,-0.535 0.406,-0.528C0.406,-0.522 0.405,-0.516 0.404,-0.512C0.402,-0.508 0.401,-0.505 0.399,-0.503C0.397,-0.501 0.394,-0.5 0.39,-0.5C0.387,-0.5 0.381,-0.502 0.373,-0.507C0.365,-0.511 0.356,-0.516 0.344,-0.522C0.333,-0.527 0.32,-0.532 0.305,-0.536C0.29,-0.541 0.273,-0.543 0.255,-0.543C0.241,-0.543 0.229,-0.541 0.219,-0.538C0.208,-0.534 0.2,-0.53 0.193,-0.524C0.186,-0.518 0.18,-0.51 0.177,-0.502C0.174,-0.493 0.172,-0.485 0.172,-0.475C0.172,-0.461 0.176,-0.449 0.183,-0.439C0.191,-0.428 0.201,-0.419 0.214,-0.411C0.227,-0.403 0.242,-0.396 0.258,-0.389C0.274,-0.382 0.291,-0.375 0.308,-0.367C0.325,-0.359 0.341,-0.35 0.357,-0.34C0.374,-0.33 0.388,-0.318 0.401,-0.304C0.414,-0.291 0.424,-0.274 0.432,-0.256C0.439,-0.237 0.443,-0.215 0.443,-0.189Z" style="fill:white;fill-rule:nonzero;"/>
                    </g>
                    <g transform="matrix(47.9238,0,0,47.9238,51911.8,3705.15)">
                        <path d="M0.586,-0.048C0.59,-0.036 0.593,-0.027 0.594,-0.02C0.595,-0.013 0.593,-0.008 0.59,-0.005C0.586,-0.001 0.58,0.001 0.571,0.002C0.562,0.003 0.549,0.003 0.533,0.003C0.517,0.003 0.504,0.003 0.494,0.002C0.485,0.002 0.478,0.001 0.473,-0.001C0.468,-0.002 0.465,-0.004 0.463,-0.007C0.461,-0.009 0.459,-0.013 0.458,-0.017L0.416,-0.144L0.178,-0.144L0.138,-0.021C0.137,-0.016 0.135,-0.012 0.133,-0.009C0.131,-0.006 0.128,-0.003 0.123,-0.002C0.118,0 0.111,0.001 0.103,0.002C0.094,0.003 0.083,0.003 0.069,0.003C0.054,0.003 0.042,0.002 0.034,0.001C0.025,0 0.019,-0.002 0.016,-0.006C0.013,-0.009 0.012,-0.015 0.013,-0.021C0.014,-0.028 0.016,-0.037 0.02,-0.049L0.215,-0.609C0.217,-0.615 0.219,-0.619 0.222,-0.623C0.224,-0.626 0.228,-0.629 0.234,-0.631C0.24,-0.632 0.248,-0.634 0.258,-0.634C0.268,-0.635 0.281,-0.635 0.298,-0.635C0.317,-0.635 0.332,-0.635 0.344,-0.634C0.355,-0.634 0.364,-0.632 0.37,-0.631C0.377,-0.629 0.381,-0.626 0.384,-0.623C0.387,-0.619 0.389,-0.614 0.391,-0.608L0.586,-0.048ZM0.296,-0.511L0.296,-0.511L0.207,-0.243L0.386,-0.243L0.296,-0.511Z" style="fill:white;fill-rule:nonzero;"/>
                    </g>
                    <g transform="matrix(47.9238,0,0,47.9238,51940.2,3705.15)">
                        <path d="M0.506,-0.096C0.506,-0.088 0.506,-0.081 0.505,-0.075C0.505,-0.069 0.504,-0.064 0.503,-0.06C0.502,-0.056 0.501,-0.053 0.499,-0.05C0.497,-0.047 0.495,-0.044 0.491,-0.04C0.488,-0.036 0.481,-0.031 0.47,-0.025C0.46,-0.02 0.448,-0.014 0.433,-0.009C0.418,-0.003 0.401,0.001 0.382,0.005C0.363,0.008 0.342,0.01 0.32,0.01C0.277,0.01 0.238,0.004 0.203,-0.01C0.168,-0.023 0.139,-0.043 0.114,-0.07C0.09,-0.096 0.071,-0.129 0.058,-0.169C0.045,-0.209 0.039,-0.255 0.039,-0.308C0.039,-0.361 0.046,-0.409 0.06,-0.451C0.074,-0.492 0.094,-0.527 0.12,-0.556C0.146,-0.584 0.177,-0.605 0.213,-0.62C0.249,-0.635 0.288,-0.642 0.332,-0.642C0.349,-0.642 0.366,-0.641 0.382,-0.638C0.399,-0.635 0.414,-0.631 0.427,-0.626C0.441,-0.622 0.454,-0.616 0.465,-0.61C0.476,-0.604 0.484,-0.598 0.488,-0.594C0.492,-0.59 0.495,-0.586 0.497,-0.583C0.499,-0.58 0.5,-0.576 0.501,-0.572C0.502,-0.567 0.503,-0.562 0.503,-0.556C0.504,-0.549 0.504,-0.542 0.504,-0.533C0.504,-0.523 0.504,-0.515 0.503,-0.508C0.502,-0.501 0.501,-0.495 0.5,-0.491C0.498,-0.487 0.496,-0.484 0.494,-0.482C0.491,-0.48 0.489,-0.479 0.486,-0.479C0.481,-0.479 0.475,-0.482 0.467,-0.488C0.46,-0.493 0.45,-0.5 0.438,-0.507C0.426,-0.514 0.412,-0.52 0.396,-0.526C0.379,-0.531 0.36,-0.534 0.337,-0.534C0.312,-0.534 0.289,-0.529 0.27,-0.519C0.25,-0.509 0.233,-0.494 0.219,-0.475C0.206,-0.456 0.195,-0.433 0.188,-0.406C0.181,-0.379 0.177,-0.348 0.177,-0.314C0.177,-0.277 0.181,-0.245 0.189,-0.218C0.196,-0.191 0.207,-0.168 0.221,-0.151C0.236,-0.133 0.253,-0.12 0.273,-0.112C0.293,-0.103 0.315,-0.099 0.34,-0.099C0.363,-0.099 0.383,-0.101 0.399,-0.107C0.416,-0.112 0.43,-0.118 0.442,-0.125C0.454,-0.131 0.464,-0.137 0.471,-0.142C0.479,-0.147 0.485,-0.15 0.489,-0.15C0.493,-0.15 0.495,-0.149 0.497,-0.148C0.499,-0.147 0.501,-0.144 0.502,-0.14C0.503,-0.136 0.504,-0.131 0.505,-0.124C0.506,-0.117 0.506,-0.107 0.506,-0.096Z" style="fill:white;fill-rule:nonzero;"/>
                    </g>
                </g>
                <g transform="matrix(0.258086,0,0,0.806088,-13127,-2080.49)">
                    <g transform="matrix(47.9238,0,0,47.9238,51888.2,3705.15)">
                        <path d="M0.59,-0.045C0.59,-0.037 0.589,-0.031 0.586,-0.025C0.583,-0.019 0.58,-0.014 0.575,-0.01C0.571,-0.006 0.566,-0.003 0.56,-0.002C0.554,0 0.548,0.001 0.542,0.001L0.487,0.001C0.475,0.001 0.466,-0 0.457,-0.002C0.449,-0.005 0.441,-0.009 0.434,-0.015C0.427,-0.021 0.421,-0.029 0.414,-0.039C0.408,-0.05 0.4,-0.063 0.392,-0.079L0.235,-0.375C0.226,-0.392 0.216,-0.411 0.207,-0.431C0.198,-0.452 0.189,-0.472 0.182,-0.491L0.181,-0.491C0.182,-0.467 0.183,-0.444 0.184,-0.421C0.184,-0.397 0.185,-0.373 0.185,-0.349L0.185,-0.018C0.185,-0.015 0.184,-0.012 0.182,-0.009C0.18,-0.007 0.177,-0.004 0.173,-0.003C0.168,-0.001 0.162,0 0.155,0.001C0.147,0.002 0.138,0.003 0.126,0.003C0.115,0.003 0.105,0.002 0.098,0.001C0.09,0 0.084,-0.001 0.08,-0.003C0.076,-0.004 0.073,-0.007 0.071,-0.009C0.07,-0.012 0.069,-0.015 0.069,-0.018L0.069,-0.586C0.069,-0.601 0.073,-0.613 0.082,-0.62C0.091,-0.628 0.102,-0.632 0.115,-0.632L0.184,-0.632C0.196,-0.632 0.207,-0.631 0.215,-0.629C0.224,-0.627 0.231,-0.623 0.238,-0.618C0.245,-0.613 0.251,-0.607 0.257,-0.598C0.263,-0.589 0.269,-0.579 0.275,-0.566L0.398,-0.335C0.405,-0.321 0.412,-0.307 0.419,-0.294C0.426,-0.28 0.433,-0.267 0.439,-0.253C0.446,-0.24 0.452,-0.226 0.458,-0.213C0.465,-0.2 0.471,-0.187 0.477,-0.174L0.477,-0.174C0.476,-0.197 0.475,-0.221 0.475,-0.246C0.474,-0.27 0.474,-0.294 0.474,-0.316L0.474,-0.613C0.474,-0.616 0.475,-0.619 0.477,-0.622C0.479,-0.624 0.482,-0.626 0.487,-0.628C0.491,-0.63 0.497,-0.632 0.505,-0.633C0.512,-0.633 0.522,-0.634 0.534,-0.634C0.545,-0.634 0.554,-0.633 0.562,-0.633C0.569,-0.632 0.575,-0.63 0.579,-0.628C0.583,-0.626 0.586,-0.624 0.587,-0.622C0.589,-0.619 0.59,-0.616 0.59,-0.613L0.59,-0.045Z" style="fill:white;fill-rule:nonzero;"/>
                    </g>
                    <g transform="matrix(47.9238,0,0,47.9238,51919.7,3705.15)">
                        <path d="M0.506,-0.096C0.506,-0.088 0.506,-0.081 0.505,-0.075C0.505,-0.069 0.504,-0.064 0.503,-0.06C0.502,-0.056 0.501,-0.053 0.499,-0.05C0.497,-0.047 0.495,-0.044 0.491,-0.04C0.488,-0.036 0.481,-0.031 0.47,-0.025C0.46,-0.02 0.448,-0.014 0.433,-0.009C0.418,-0.003 0.401,0.001 0.382,0.005C0.363,0.008 0.342,0.01 0.32,0.01C0.277,0.01 0.238,0.004 0.203,-0.01C0.168,-0.023 0.139,-0.043 0.114,-0.07C0.09,-0.096 0.071,-0.129 0.058,-0.169C0.045,-0.209 0.039,-0.255 0.039,-0.308C0.039,-0.361 0.046,-0.409 0.06,-0.451C0.074,-0.492 0.094,-0.527 0.12,-0.556C0.146,-0.584 0.177,-0.605 0.213,-0.62C0.249,-0.635 0.288,-0.642 0.332,-0.642C0.349,-0.642 0.366,-0.641 0.382,-0.638C0.399,-0.635 0.414,-0.631 0.427,-0.626C0.441,-0.622 0.454,-0.616 0.465,-0.61C0.476,-0.604 0.484,-0.598 0.488,-0.594C0.492,-0.59 0.495,-0.586 0.497,-0.583C0.499,-0.58 0.5,-0.576 0.501,-0.572C0.502,-0.567 0.503,-0.562 0.503,-0.556C0.504,-0.549 0.504,-0.542 0.504,-0.533C0.504,-0.523 0.504,-0.515 0.503,-0.508C0.502,-0.501 0.501,-0.495 0.5,-0.491C0.498,-0.487 0.496,-0.484 0.494,-0.482C0.491,-0.48 0.489,-0.479 0.486,-0.479C0.481,-0.479 0.475,-0.482 0.467,-0.488C0.46,-0.493 0.45,-0.5 0.438,-0.507C0.426,-0.514 0.412,-0.52 0.396,-0.526C0.379,-0.531 0.36,-0.534 0.337,-0.534C0.312,-0.534 0.289,-0.529 0.27,-0.519C0.25,-0.509 0.233,-0.494 0.219,-0.475C0.206,-0.456 0.195,-0.433 0.188,-0.406C0.181,-0.379 0.177,-0.348 0.177,-0.314C0.177,-0.277 0.181,-0.245 0.189,-0.218C0.196,-0.191 0.207,-0.168 0.221,-0.151C0.236,-0.133 0.253,-0.12 0.273,-0.112C0.293,-0.103 0.315,-0.099 0.34,-0.099C0.363,-0.099 0.383,-0.101 0.399,-0.107C0.416,-0.112 0.43,-0.118 0.442,-0.125C0.454,-0.131 0.464,-0.137 0.471,-0.142C0.479,-0.147 0.485,-0.15 0.489,-0.15C0.493,-0.15 0.495,-0.149 0.497,-0.148C0.499,-0.147 0.501,-0.144 0.502,-0.14C0.503,-0.136 0.504,-0.131 0.505,-0.124C0.506,-0.117 0.506,-0.107 0.506,-0.096Z" style="fill:white;fill-rule:nonzero;"/>
                    </g>
                    <g transform="matrix(47.9238,0,0,47.9238,51945.1,3705.15)">
                        <path d="M0.423,-0.579C0.423,-0.569 0.423,-0.561 0.422,-0.554C0.421,-0.548 0.42,-0.542 0.418,-0.539C0.416,-0.535 0.414,-0.532 0.412,-0.53C0.41,-0.528 0.407,-0.527 0.404,-0.527L0.198,-0.527L0.198,-0.357L0.392,-0.357C0.395,-0.357 0.397,-0.356 0.399,-0.354C0.402,-0.353 0.404,-0.35 0.406,-0.346C0.407,-0.342 0.409,-0.337 0.409,-0.331C0.41,-0.324 0.411,-0.316 0.411,-0.306C0.411,-0.296 0.41,-0.288 0.409,-0.282C0.409,-0.275 0.407,-0.27 0.406,-0.266C0.404,-0.261 0.402,-0.258 0.399,-0.257C0.397,-0.255 0.395,-0.254 0.392,-0.254L0.198,-0.254L0.198,-0.019C0.198,-0.015 0.197,-0.012 0.195,-0.009C0.193,-0.007 0.189,-0.004 0.184,-0.003C0.179,-0.001 0.173,0 0.165,0.001C0.156,0.002 0.146,0.003 0.133,0.003C0.121,0.003 0.111,0.002 0.102,0.001C0.094,0 0.087,-0.001 0.083,-0.003C0.078,-0.004 0.074,-0.007 0.072,-0.009C0.07,-0.012 0.069,-0.015 0.069,-0.019L0.069,-0.591C0.069,-0.606 0.073,-0.616 0.08,-0.622C0.087,-0.629 0.096,-0.632 0.107,-0.632L0.404,-0.632C0.407,-0.632 0.41,-0.631 0.412,-0.629C0.414,-0.627 0.416,-0.624 0.418,-0.62C0.42,-0.616 0.421,-0.611 0.422,-0.604C0.423,-0.597 0.423,-0.589 0.423,-0.579Z" style="fill:white;fill-rule:nonzero;"/>
                    </g>
                </g>
                <g transform="matrix(3.31324e-18,0.184468,-0.135564,2.85271e-17,866.206,-8748.21)">
                    <path d="M51956.8,4377.89L51956.8,4347.15L52060.1,4347.15L52060.1,4318.62L52160.9,4362.52L52060.1,4406.42L52060.1,4377.89L51956.8,4377.89Z" style="fill:white;"/>
                </g>
            </g>
        </g>
    </g>
</svg>
