<?xml version="1.0" encoding="UTF-8" standalone="no"?>
<!DOCTYPE svg PUBLIC "-//W3C//DTD SVG 1.1//EN" "http://www.w3.org/Graphics/SVG/1.1/DTD/svg11.dtd">
<svg width="100%" height="100%" viewBox="0 0 251 247" version="1.1" xmlns="http://www.w3.org/2000/svg" xmlns:xlink="http://www.w3.org/1999/xlink" xml:space="preserve" xmlns:serif="http://www.serif.com/" style="fill-rule:evenodd;clip-rule:evenodd;stroke-linecap:round;stroke-linejoin:round;stroke-miterlimit:1.5;">
    <g transform="matrix(1,0,0,1,-1352.05,-1020.97)">
        <g transform="matrix(5.39006,0,0,1.72574,0,0)">
            <g id="setting" transform="matrix(0.569858,0,0,0.644699,-90.5742,217.565)">
                <g transform="matrix(0.522251,0,0,3.58951,-26364.2,-12737.3)">
                    <path d="M51782.4,3719.52C51782.4,3714.91 51773.1,3711.16 51761.6,3711.16L51652.5,3711.16C51641,3711.16 51631.7,3714.91 51631.7,3719.52L51631.7,3762.53C51631.7,3767.14 51641,3770.89 51652.5,3770.89L51761.6,3770.89C51773.1,3770.89 51782.4,3767.14 51782.4,3762.53L51782.4,3719.52Z" style="fill:rgb(2,70,100);stroke:rgb(2,70,100);stroke-width:2.74px;"/>
                </g>
                <g transform="matrix(1.41269,-1.81752,0.688743,3.97261,-435.082,-502.019)">
                    <g id="setting1" serif:id="setting">
                        <path d="M506.983,543.569C504.315,544.544 501.369,543.169 500.393,540.504C499.421,537.837 500.792,534.889 503.458,533.915C506.124,532.942 509.073,534.314 510.048,536.979C511.022,539.645 509.647,542.598 506.983,543.569ZM519.445,531.892C519.307,531.519 518.893,531.326 518.52,531.463L517.275,531.915C516.896,532.052 516.399,531.906 516.164,531.586L513.024,528.249C512.723,527.992 512.607,527.487 512.776,527.127L513.31,525.977C513.479,525.614 513.32,525.183 512.961,525.017L510.192,523.726C509.832,523.558 509.401,523.715 509.23,524.078L508.65,525.331C508.479,525.693 508.016,525.943 507.626,525.889L503.681,525.772C503.285,525.8 502.847,525.517 502.712,525.145L502.248,523.87C502.111,523.497 501.692,523.305 501.322,523.44L498.448,524.488C498.077,524.624 497.881,525.041 498.017,525.413L498.483,526.69C498.618,527.059 498.47,527.563 498.151,527.801L494.788,530.968C494.536,531.272 494.035,531.382 493.673,531.22L492.453,530.649C492.091,530.482 491.658,530.638 491.493,531.001L490.203,533.772C490.033,534.133 490.191,534.565 490.554,534.732L491.884,535.353C492.25,535.519 492.499,535.976 492.447,536.375L492.335,540.28C492.37,540.678 492.085,541.114 491.711,541.248L490.357,541.742C489.983,541.879 489.792,542.296 489.929,542.67L490.976,545.538C491.111,545.914 491.528,546.11 491.9,545.974L493.253,545.48C493.628,545.344 494.128,545.487 494.368,545.808L497.465,549.127C497.775,549.38 497.884,549.882 497.721,550.242L497.127,551.512C496.96,551.872 497.117,552.304 497.476,552.47L500.25,553.755C500.611,553.928 501.042,553.772 501.207,553.408L501.841,552.055C502.01,551.693 502.463,551.446 502.858,551.501L506.848,551.618C507.243,551.592 507.678,551.877 507.814,552.249L508.299,553.578C508.436,553.95 508.854,554.143 509.224,554.007L512.094,552.959C512.469,552.824 512.664,552.406 512.526,552.032L512.042,550.703C511.908,550.332 512.056,549.835 512.38,549.596L515.667,546.522C515.927,546.221 516.422,546.11 516.787,546.275L517.985,546.837C518.346,547.001 518.78,546.846 518.947,546.486L520.235,543.713C520.406,543.351 520.248,542.92 519.885,542.755L518.607,542.162C518.25,541.99 518.002,541.534 518.056,541.141L518.184,537.114C518.151,536.718 518.442,536.284 518.817,536.142L520.064,535.687C520.432,535.553 520.628,535.136 520.492,534.763L519.445,531.892Z" style="fill:white;"/>
                    </g>
                </g>
                <g transform="matrix(1.07833,0,0,3.03236,76.99,-993.484)">
                    <g id="setting2" serif:id="setting">
                        <path d="M506.983,543.569C504.315,544.544 501.369,543.169 500.393,540.504C499.421,537.837 500.792,534.889 503.458,533.915C506.124,532.942 509.073,534.314 510.048,536.979C511.022,539.645 509.647,542.598 506.983,543.569ZM519.445,531.892C519.307,531.519 518.893,531.326 518.52,531.463L517.275,531.915C516.896,532.052 516.399,531.906 516.164,531.586L513.024,528.249C512.723,527.992 512.607,527.487 512.776,527.127L513.31,525.977C513.479,525.614 513.32,525.183 512.961,525.017L510.192,523.726C509.832,523.558 509.401,523.715 509.23,524.078L508.65,525.331C508.479,525.693 508.016,525.943 507.626,525.889L503.681,525.772C503.285,525.8 502.847,525.517 502.712,525.145L502.248,523.87C502.111,523.497 501.692,523.305 501.322,523.44L498.448,524.488C498.077,524.624 497.881,525.041 498.017,525.413L498.483,526.69C498.618,527.059 498.47,527.563 498.151,527.801L494.788,530.968C494.536,531.272 494.035,531.382 493.673,531.22L492.453,530.649C492.091,530.482 491.658,530.638 491.493,531.001L490.203,533.772C490.033,534.133 490.191,534.565 490.554,534.732L491.884,535.353C492.25,535.519 492.499,535.976 492.447,536.375L492.335,540.28C492.37,540.678 492.085,541.114 491.711,541.248L490.357,541.742C489.983,541.879 489.792,542.296 489.929,542.67L490.976,545.538C491.111,545.914 491.528,546.11 491.9,545.974L493.253,545.48C493.628,545.344 494.128,545.487 494.368,545.808L497.465,549.127C497.775,549.38 497.884,549.882 497.721,550.242L497.127,551.512C496.96,551.872 497.117,552.304 497.476,552.47L500.25,553.755C500.611,553.928 501.042,553.772 501.207,553.408L501.841,552.055C502.01,551.693 502.463,551.446 502.858,551.501L506.848,551.618C507.243,551.592 507.678,551.877 507.814,552.249L508.299,553.578C508.436,553.95 508.854,554.143 509.224,554.007L512.094,552.959C512.469,552.824 512.664,552.406 512.526,552.032L512.042,550.703C511.908,550.332 512.056,549.835 512.38,549.596L515.667,546.522C515.927,546.221 516.422,546.11 516.787,546.275L517.985,546.837C518.346,547.001 518.78,546.846 518.947,546.486L520.235,543.713C520.406,543.351 520.248,542.92 519.885,542.755L518.607,542.162C518.25,541.99 518.002,541.534 518.056,541.141L518.184,537.114C518.151,536.718 518.442,536.284 518.817,536.142L520.064,535.687C520.432,535.553 520.628,535.136 520.492,534.763L519.445,531.892Z" style="fill:white;"/>
                    </g>
                </g>
            </g>
        </g>
    </g>
</svg>
